<?xml version="1.0" encoding="UTF-8"?>
<svg width="37px" height="37px" viewBox="0 0 37 37" version="1.1" xmlns="http://www.w3.org/2000/svg" xmlns:xlink="http://www.w3.org/1999/xlink">
    <!-- Generator: Sketch 43.1 (39012) - http://www.bohemiancoding.com/sketch -->
    <title>Combined Shape</title>
    <desc>Created with Sketch.</desc>
    <defs></defs>
    <g id="Page-1" stroke="none" stroke-width="1" fill="none" fill-rule="evenodd">
        <g id="1499282451_42-dribbble" fill-rule="nonzero" fill="#FFFFFF">
            <path d="M34.813,25.739 C34.366,26.8 33.811,27.821 33.165,28.774 C32.526,29.721 31.792,30.61 30.983,31.419 C30.174,32.226 29.286,32.96 28.34,33.601 C27.385,34.246 26.361,34.8 25.303,35.249 C24.223,35.704 23.094,36.054 21.946,36.29 C20.768,36.532 19.557,36.655 18.346,36.655 C17.135,36.655 15.924,36.532 14.746,36.29 C13.598,36.054 12.467,35.704 11.389,35.249 C10.329,34.8 9.306,34.245 8.351,33.601 C7.406,32.96 6.516,32.226 5.708,31.419 C4.899,30.61 4.165,29.722 3.526,28.774 C2.881,27.821 2.327,26.799 1.878,25.739 C1.422,24.659 1.071,23.53 0.835,22.38 C0.596,21.202 0.474,19.993 0.474,18.782 C0.474,17.571 0.596,16.36 0.835,15.184 C1.071,14.034 1.422,12.903 1.878,11.825 C2.327,10.764 2.882,9.741 3.526,8.787 C4.165,7.84 4.899,6.953 5.708,6.142 C6.516,5.335 7.405,4.603 8.351,3.962 C9.306,3.316 10.329,2.761 11.389,2.312 C12.467,1.855 13.598,1.505 14.746,1.271 C15.924,1.031 17.135,0.908 18.346,0.908 C19.557,0.908 20.768,1.031 21.946,1.271 C23.094,1.505 24.223,1.855 25.303,2.312 C26.362,2.761 27.385,3.316 28.34,3.962 C29.285,4.603 30.174,5.335 30.983,6.142 C31.792,6.953 32.526,7.839 33.165,8.787 C33.811,9.74 34.366,10.764 34.813,11.825 C35.27,12.903 35.62,14.034 35.854,15.184 C36.096,16.36 36.219,17.571 36.219,18.782 C36.219,19.993 36.096,21.202 35.854,22.38 C35.62,23.53 35.271,24.659 34.813,25.739 Z M23.905,20.538 C25.907,26.04 26.719,30.52 26.876,31.44 C30.302,29.128 32.737,25.456 33.415,21.202 C33.101,21.101 28.831,19.749 23.905,20.538 Z M20.944,21.278 C11.936,24.419 8.996,30.747 8.968,30.807 C11.557,32.828 14.807,34.043 18.346,34.043 C20.459,34.043 22.473,33.613 24.305,32.834 C24.078,31.5 23.192,26.826 21.043,21.244 C21.011,21.257 20.978,21.267 20.944,21.278 Z M21.63,15.126 C21.985,15.855 22.327,16.595 22.646,17.339 C22.757,17.607 22.867,17.868 22.974,18.13 C28.218,17.47 33.384,18.581 33.605,18.626 C33.57,15.007 32.275,11.687 30.134,9.086 C30.104,9.127 27.657,12.665 21.63,15.126 Z M19.403,18.899 C19.602,18.833 19.803,18.774 20.005,18.715 C19.622,17.848 19.204,16.979 18.767,16.121 C10.908,18.475 3.367,18.305 3.097,18.295 C3.092,18.459 3.084,18.617 3.084,18.781 C3.084,22.703 4.563,26.277 6.995,28.98 C6.993,28.976 6.989,28.972 6.989,28.972 C6.989,28.972 11.167,21.563 19.403,18.899 Z M17.501,13.772 C14.86,9.078 12.038,5.248 11.835,4.977 C7.578,6.987 4.401,10.909 3.411,15.636 C3.813,15.64 10.173,15.72 17.501,13.772 Z M28.427,7.327 C25.739,4.958 22.21,3.52 18.347,3.52 C17.107,3.52 15.904,3.67 14.749,3.948 C14.979,4.255 17.847,8.059 20.456,12.853 C26.216,10.692 28.39,7.383 28.427,7.327 Z M14.692,3.963 L14.688,3.963 C14.688,3.963 14.67,3.967 14.641,3.975 C14.659,3.967 14.674,3.965 14.692,3.963 Z M8.965,30.813 L8.968,30.807 C8.855,30.719 8.735,30.639 8.624,30.545 C8.827,30.71 8.965,30.813 8.965,30.813 Z" id="Combined-Shape"></path>
        </g>
    </g>
</svg>