<?xml version="1.0" encoding="UTF-8"?>
<svg width="156px" height="60px" viewBox="0 0 156 60" version="1.1" xmlns="http://www.w3.org/2000/svg" xmlns:xlink="http://www.w3.org/1999/xlink">
    <!-- Generator: Sketch 43.1 (39012) - http://www.bohemiancoding.com/sketch -->
    <title>Combined Shape</title>
    <desc>Created with Sketch.</desc>
    <defs></defs>
    <g id="Page-1" stroke="none" stroke-width="1" fill="none" fill-rule="evenodd">
        <g id="Artboard" transform="translate(-191.000000, -109.000000)" fill="#FFFFFF">
            <g id="Group-2" transform="translate(191.000000, 109.000000)">
                <path d="M84.0416166,7.00018913 C84.0416166,3.13409143 87.1847472,0 91.0444178,0 C94.911958,0 98.0472189,3.14138263 98.0472189,7.00018913 L98.0472189,52.9998109 C98.0472189,56.8659086 94.9040884,60 91.0444178,60 C87.1768775,60 84.0416166,56.8586174 84.0416166,52.9998109 L84.0416166,7.00018913 Z M28.0192077,23.0023868 L28.0192077,23.0023868 L28.0192077,20.9954405 C28.0192077,9.4062282 37.4249903,-1.77635684e-13 49.027611,-1.70530257e-13 C60.6327829,-1.70530257e-13 70.0360144,9.40477666 70.0360144,21.0061566 L70.0360144,52.9998109 C70.0360144,56.8586174 66.8994824,60 63.0303741,60 L63.0713028,60 C59.2008821,60 56.0656624,56.8644764 56.0656624,52.9966121 L56.0656624,20.2237269 C56.0656624,16.3623229 52.9291304,13.220339 49.0600221,13.220339 L49.1009508,13.220339 C45.2305301,13.220339 42.0953104,16.3559108 42.0953104,20.2238347 L42.0953104,34.9965043 C42.0953104,35.3359121 42.0712715,35.6679623 42.0248099,35.9911488 L42.0248099,39.0038652 C42.0248099,50.5900473 32.6190274,60 21.0164066,60 C9.41123467,60 0.00800320128,50.5952233 0.00800320128,38.9938434 L0.00800320128,7.00018913 C0.00800320128,3.14138263 3.14453523,2.13162821e-14 7.01364356,2.13162821e-14 L6.97271484,2.13162821e-14 C10.8431355,2.13162821e-14 13.9783552,3.13552357 13.9783552,7.00338791 L13.9783552,39.7762731 C13.9783552,43.6376771 17.1148872,46.779661 20.9839956,46.779661 L20.9430668,46.779661 C24.8134875,46.779661 27.9487072,43.6452858 27.9487072,39.7788381 L27.9487072,24.0008229 C27.9487072,23.6618005 27.9727453,23.3284527 28.0192077,23.0023868 Z M155.070028,52.9970846 C155.070028,56.8613618 151.933496,60 148.105316,60 C144.234896,60 141.099676,56.8684842 141.099676,53.0055637 L141.099676,43.9944363 C141.099676,40.1258188 139.92834,37 136.062425,37 L127,37 L127,23 L136.56355,23 C146.774405,23 155.070028,31.2827321 155.070028,41.5 L155.070028,52.9970846 Z M148.067227,14 C144.199687,14 141.064426,10.8659932 141.064426,7 C141.064426,3.13400675 144.199687,0 148.067227,0 C151.934767,0 155.070028,3.13400675 155.070028,7 C155.070028,10.8659932 151.934767,14 148.067227,14 Z M112,7.00018913 C112,3.13409143 115.126233,0 118.994969,0 L120.005031,0 C123.868246,0 127,3.14138263 127,7.00018913 L127,52.9998109 C127,56.8659086 123.873767,60 120.005031,60 L118.994969,60 C115.131754,60 112,56.8586174 112,52.9998109 L112,7.00018913 Z" id="Combined-Shape"></path>
            </g>
        </g>
    </g>
</svg>