<?xml version="1.0" encoding="UTF-8"?>
<svg width="156px" height="60px" viewBox="0 0 156 60" version="1.1" xmlns="http://www.w3.org/2000/svg" xmlns:xlink="http://www.w3.org/1999/xlink">
    <!-- Generator: Sketch 43.1 (39012) - http://www.bohemiancoding.com/sketch -->
    <title>Combined Shape</title>
    <desc>Created with Sketch.</desc>
    <defs></defs>
    <g id="Page-1" stroke="none" stroke-width="1" fill="none" fill-rule="evenodd">
        <g id="Artboard" transform="translate(-191.000000, -109.000000)" fill="#FFFFFF">
            <g id="Group-2" transform="translate(191.000000, 109.000000)">
                <path d="M84.0336134,7.00018913 C84.0336134,3.13409143 87.176744,1.70530257e-13 91.0364146,1.70530257e-13 C94.9039548,1.70530257e-13 98.0392157,3.14138263 98.0392157,7.00018913 L98.0392157,52.9998109 C98.0392157,56.8659086 94.8960852,60 91.0364146,60 C87.1688743,60 84.0336134,56.8586174 84.0336134,52.9998109 L84.0336134,7.00018913 Z M28.0112045,23.0023868 L28.0112045,23.0023868 L28.0112045,20.9954405 C28.0112045,9.4062282 37.416987,-7.10542736e-15 49.0196078,0 C60.6247797,0 70.0280112,9.40477666 70.0280112,21.0061566 L70.0280112,52.9998109 C70.0280112,56.8586174 66.8914792,60 63.0223708,60 L63.0632996,60 C59.1928789,60 56.0576592,56.8644764 56.0576592,52.9966121 L56.0576592,20.2237269 C56.0576592,16.3623229 52.9211272,13.220339 49.0520189,13.220339 L49.0929476,13.220339 C45.2225269,13.220339 42.0873072,16.3559108 42.0873072,20.2238347 L42.0873072,34.9965043 C42.0873072,35.3359121 42.0632683,35.6679623 42.0168067,35.9911488 L42.0168067,39.0038652 C42.0168067,50.5900473 32.6110242,60 21.0084034,60 C9.40323147,60 9.97980519e-26,50.5952233 7.32400932e-26,38.9938434 L0,7.00018913 C-8.83360633e-27,3.14138263 3.13653202,1.91846539e-13 7.00564036,1.91846539e-13 L6.96471164,1.91846539e-13 C10.8351323,1.91846539e-13 13.970352,3.13552357 13.970352,7.00338791 L13.970352,39.7762731 C13.970352,43.6376771 17.106884,46.779661 20.9759924,46.779661 L20.9350636,46.779661 C24.8054843,46.779661 27.940704,43.6452858 27.940704,39.7788381 L27.940704,24.0008229 C27.940704,23.6618005 27.9647421,23.3284527 28.0112045,23.0023868 Z M155.062025,52.9970846 C155.062025,56.8613618 151.925493,60 148.097313,60 C144.226892,60 141.091673,56.8684842 141.091673,53.0055637 L141.091673,43.9944363 C141.091673,40.1258188 139.920337,37 136.054422,37 L126.991997,37 L126.991997,23 L136.555547,23 C146.766402,23 155.062025,31.2827321 155.062025,41.5 L155.062025,52.9970846 Z M141,7 C141,3.13400675 144.141873,0 148,0 C151.865993,0 155,3.14187327 155,7 C155,10.8659932 151.858127,14 148,14 L141,14 L141,7 Z M111.991997,7.00018913 C111.991997,3.13409143 115.11823,1.70530257e-13 118.986966,1.70530257e-13 L119.997028,1.70530257e-13 C123.860243,1.70530257e-13 126.991997,3.14138263 126.991997,7.00018913 L126.991997,52.9998109 C126.991997,56.8659086 123.865764,60 119.997028,60 L118.986966,60 C115.123751,60 111.991997,56.8586174 111.991997,52.9998109 L111.991997,7.00018913 Z" id="Combined-Shape"></path>
            </g>
        </g>
    </g>
</svg>