<?xml version="1.0" encoding="UTF-8"?>
<svg width="22px" height="22px" viewBox="0 0 22 22" version="1.1" xmlns="http://www.w3.org/2000/svg" xmlns:xlink="http://www.w3.org/1999/xlink">
    <!-- Generator: Sketch 43.1 (39012) - http://www.bohemiancoding.com/sketch -->
    <title>UU_logo_2f_20</title>
    <desc>Created with Sketch.</desc>
    <defs></defs>
    <g id="Page-1" stroke="none" stroke-width="1" fill="none" fill-rule="evenodd">
        <g id="UU_logo_2f_20" fill="#FFFFFF">
            <path d="M6.902,17.82 C6.729,17.69 6.545,17.575 6.355,17.485 C6.147,17.457 5.923,17.485 5.808,17.668 C5.686,17.805 5.711,18.021 5.773,18.176 C5.819,18.273 5.549,18.335 5.527,18.418 C5.419,18.555 5.527,18.783 5.625,18.863 C5.729,18.949 5.823,19.01 5.923,19.082 C6.082,19.212 6.265,19.273 6.445,19.349 C6.47,19.356 6.519,19.366 6.543,19.333 C6.602,19.251 6.548,19.272 6.491,19.192 C6.408,19.052 6.578,18.831 6.628,18.72 C6.728,18.515 6.787,18.312 6.995,18.197 C7.085,18.158 7.232,18.23 7.276,18.122 C7.193,17.974 7.017,17.942 6.902,17.82 Z M6.113,18.901 C6.006,18.953 5.914,18.801 5.831,18.754 C5.827,18.698 5.839,18.615 5.863,18.564 C5.903,18.532 6.002,18.426 6.054,18.449 C6.097,18.509 6.186,18.573 6.253,18.605 C6.269,18.684 6.149,18.838 6.113,18.901 Z M6.455,18.221 C6.431,18.261 6.384,18.383 6.332,18.399 C6.25,18.371 6.171,18.3 6.103,18.227 C5.962,18.076 6.119,17.943 6.143,17.848 C6.269,17.761 6.512,17.768 6.623,17.851 C6.702,17.981 6.486,18.115 6.455,18.221 L6.455,18.221 Z" id="Fill-19"></path>
            <path d="M10.084,11.243 C9.987,11.279 10.074,11.43 9.911,11.444 C9.782,11.456 9.601,11.337 9.529,11.211 C9.586,11.141 9.759,11.11 9.755,10.89 C9.751,10.693 9.704,10.576 9.469,10.501 C9.307,10.451 9.112,10.483 8.933,10.473 C8.864,10.483 8.757,10.456 8.714,10.522 C8.689,10.575 8.774,10.576 8.806,10.623 C8.846,10.86 8.807,11.258 8.789,11.496 C8.789,11.568 8.637,11.6 8.705,11.672 C8.755,11.758 8.92,11.688 9.003,11.702 C9.046,11.709 9.082,11.728 9.122,11.702 C9.197,11.648 9.128,11.573 9.136,11.498 C9.143,11.43 9.058,11.245 9.315,11.404 C9.456,11.493 9.565,11.638 9.731,11.678 C9.832,11.696 10.015,11.73 10.087,11.625 C10.148,11.525 10.196,11.434 10.171,11.308 C10.146,11.269 10.134,11.221 10.084,11.243 Z M9.386,11.045 C9.347,11.127 9.252,11.136 9.17,11.127 C9.097,11.093 9.161,10.877 9.13,10.821 C9.113,10.778 9.124,10.706 9.149,10.666 C9.227,10.636 9.345,10.631 9.388,10.73 C9.413,10.795 9.416,10.985 9.386,11.045 L9.386,11.045 Z" id="Fill-20"></path>
            <path d="M9.357,4.809 C9.307,4.748 8.996,4.845 8.935,4.874 C8.78,4.981 8.866,5.179 8.896,5.323 L8.881,5.769 C8.859,5.917 8.816,6.057 8.762,6.194 C8.834,6.266 8.946,6.192 9.032,6.164 C9.086,6.121 9.172,6.125 9.19,6.054 C9.187,6.014 9.14,6.025 9.114,6.01 C9.097,5.981 9.071,5.96 9.079,5.92 C9.082,5.827 9.165,5.773 9.23,5.715 C9.302,5.686 9.573,5.539 9.652,5.596 C9.695,5.628 9.717,5.666 9.72,5.717 C9.742,5.79 9.543,5.89 9.695,5.934 C9.847,5.978 10.06,5.778 10.208,5.72 L10.215,5.692 C10.086,5.573 10.109,5.664 10.009,5.516 C10.009,5.516 9.505,4.899 9.357,4.809 Z M9.451,5.459 C9.404,5.485 9.145,5.623 9.094,5.582 C9.051,5.475 9.023,5.196 9.088,5.078 C9.231,5.013 9.372,5.276 9.451,5.344 C9.469,5.376 9.469,5.431 9.451,5.459 L9.451,5.459 Z" id="Fill-21"></path>
            <path d="M7.97,6.281 C7.909,6.267 7.848,6.285 7.808,6.331 C7.779,6.382 7.783,6.45 7.79,6.508 C7.772,6.572 7.732,6.641 7.66,6.659 C7.596,6.659 7.455,6.651 7.455,6.651 C7.507,6.498 7.514,6.267 7.384,6.141 C7.29,6.042 7.204,5.968 7.063,5.997 C6.905,5.994 6.754,6.051 6.675,6.195 C6.552,6.313 6.381,6.404 6.259,6.519 C6.234,6.555 6.266,6.595 6.292,6.613 C6.41,6.587 6.497,6.667 6.583,6.728 C6.694,6.868 6.827,7.066 6.942,7.206 C7.043,7.296 6.907,7.426 7.011,7.516 C7.036,7.541 7.083,7.545 7.112,7.53 L7.456,7.184 C7.481,7.123 7.438,7.041 7.361,7.073 C7.317,7.068 7.265,7.051 7.254,6.994 C7.419,6.896 7.654,6.957 7.834,6.885 C7.945,6.835 8.06,6.727 8.089,6.605 C8.106,6.486 8.089,6.35 7.97,6.281 Z M7.082,6.791 C6.971,6.791 6.837,6.506 6.741,6.463 C6.748,6.42 6.84,6.326 6.879,6.311 C7.048,6.19 7.191,6.432 7.206,6.558 C7.22,6.633 7.123,6.75 7.082,6.791 L7.082,6.791 Z" id="Fill-22"></path>
            <path d="M10.385,19.525 C10.339,19.673 10.28,19.817 10.179,19.944 C10.071,20.085 9.912,20.145 9.758,20.189 C9.531,20.257 9.452,20.088 9.272,20.279 C9.254,20.322 9.279,20.361 9.312,20.387 C9.502,20.477 9.564,20.447 9.79,20.452 C9.935,20.477 10.1,20.47 10.251,20.473 C10.387,20.408 10.542,20.397 10.672,20.329 C10.809,20.278 11.018,20.092 11.177,20.11 L11.61,20.331 C12.03,20.447 12.216,20.418 12.532,20.401 C12.662,20.386 12.755,20.275 12.824,20.167 C12.831,20.117 12.853,20.041 12.806,20.002 C12.748,19.937 12.68,20.008 12.607,19.991 C12.377,19.94 12.126,19.922 11.967,19.703 C11.92,19.648 11.875,19.588 11.835,19.525 L11.549,19.525 C11.646,19.702 11.768,19.862 11.885,20.01 C11.906,20.041 11.978,20.06 11.949,20.11 C11.863,20.139 11.686,19.994 11.614,19.948 C11.41,19.845 11.217,19.566 10.9,19.739 C10.829,19.779 10.784,19.806 10.712,19.853 C10.673,19.878 10.5,20.033 10.449,20.016 L10.6,19.749 C10.62,19.672 10.648,19.599 10.675,19.525 L10.385,19.525" id="Fill-23"></path>
            <path d="M9.455,18.572 C9.46,18.574 9.465,18.576 9.47,18.577 C9.693,18.605 9.949,18.591 10.161,18.642 C10.265,18.739 10.424,18.747 10.484,18.894 C10.514,18.963 10.521,19.056 10.499,19.131 C10.457,19.26 10.426,19.394 10.385,19.524 L10.675,19.525 C10.719,19.409 10.764,19.294 10.78,19.166 C10.797,19.04 10.835,18.891 10.752,18.765 C10.718,18.703 10.664,18.637 10.601,18.573 L9.455,18.572 Z M11.517,18.572 C11.434,18.719 11.378,18.877 11.377,19.008 C11.398,19.196 11.462,19.367 11.549,19.525 L11.835,19.525 C11.705,19.321 11.631,19.079 11.719,18.84 C11.795,18.71 11.953,18.71 12.093,18.7 C12.277,18.648 12.47,18.611 12.661,18.572 L11.517,18.572 L11.517,18.572 Z" id="Fill-24"></path>
            <path d="M5.645,16.667 C5.648,16.671 5.651,16.674 5.653,16.678 C5.883,16.976 6.208,17.134 6.466,17.39 C6.848,17.642 7.251,17.847 7.654,18.044 C7.887,18.16 8.135,18.232 8.388,18.307 C8.713,18.47 9.109,18.462 9.455,18.572 L10.601,18.572 C10.446,18.415 10.237,18.264 10.153,18.177 C10.156,18.13 10.185,18.13 10.229,18.113 C10.408,18.113 10.852,18.39 10.992,18.243 C11.035,18.203 11.068,18.113 11.136,18.127 C11.233,18.292 11.439,18.239 11.589,18.217 C11.654,18.21 11.791,18.134 11.856,18.12 C11.867,18.134 11.882,18.156 11.87,18.173 C11.742,18.254 11.611,18.406 11.517,18.573 L12.661,18.572 C12.968,18.509 13.273,18.44 13.547,18.296 C13.924,18.196 14.27,18.019 14.622,17.861 C14.928,17.681 15.234,17.505 15.525,17.3 C15.773,17.124 15.99,16.897 16.207,16.667 L15.822,16.667 C15.528,16.965 15.164,17.132 14.834,17.357 C14.355,17.631 13.867,17.879 13.35,18.063 C13.051,18.221 12.701,18.257 12.384,18.376 C12.306,18.386 12.212,18.39 12.169,18.318 C12.153,18.282 12.136,18.232 12.165,18.196 C12.262,18.117 12.424,18.131 12.481,17.98 C12.492,17.883 12.412,17.859 12.333,17.82 C12.189,17.769 12.045,17.852 11.901,17.867 C11.735,17.921 11.593,17.998 11.392,17.937 C11.33,17.894 11.273,17.85 11.226,17.792 L11.229,17.764 C11.381,17.792 11.528,17.739 11.686,17.743 C11.963,17.761 12.204,17.656 12.485,17.674 C12.939,17.649 13.352,17.53 13.727,17.318 C14.118,17.145 14.5,16.944 14.852,16.67 C14.855,16.669 14.856,16.668 14.858,16.666 L14.358,16.667 C14.084,16.832 13.807,16.992 13.525,17.138 L12.924,17.343 L12.752,17.383 L11.276,17.53 C11.093,17.566 10.916,17.512 10.733,17.509 C10.484,17.465 10.226,17.451 9.981,17.401 C9.135,17.284 8.31,17.105 7.595,16.667 L7.091,16.667 C7.422,16.909 7.762,17.13 8.15,17.231 C8.546,17.379 8.967,17.462 9.38,17.566 C9.912,17.685 10.488,17.707 11.05,17.757 L11.064,17.775 C10.891,17.839 10.888,18.163 10.654,18.048 C10.413,17.969 10.239,17.871 10.002,17.778 C9.89,17.785 9.685,17.714 9.632,17.836 C9.603,17.904 9.574,17.983 9.6,18.063 C9.618,18.098 9.661,18.117 9.7,18.102 C9.74,18.041 9.83,18.084 9.887,18.098 C9.912,18.113 9.916,18.156 9.902,18.181 C9.718,18.307 9.492,18.192 9.287,18.196 C9.014,18.109 8.715,18.088 8.463,17.955 C8.294,17.901 8.135,17.822 7.963,17.782 C7.592,17.584 7.211,17.415 6.858,17.181 C6.62,17.036 6.379,16.863 6.158,16.667 L5.645,16.667" id="Fill-25"></path>
            <path d="M3.592,12.857 C3.687,13.197 3.801,13.529 3.927,13.857 C4.088,14.116 4.143,14.422 4.294,14.685 C4.716,15.361 5.131,16.034 5.645,16.667 L6.158,16.667 C5.909,16.447 5.684,16.196 5.517,15.922 C5.074,15.375 4.736,14.789 4.456,14.178 C4.387,13.965 4.251,13.774 4.178,13.562 C4.079,13.334 4,13.098 3.931,12.858 L3.592,12.857 Z M4.548,12.857 L4.657,13.264 C4.75,13.569 4.902,13.854 4.995,14.16 C5.157,14.627 5.524,15.012 5.808,15.426 C6.038,15.768 6.38,16.055 6.678,16.361 C6.816,16.462 6.953,16.566 7.091,16.667 L7.595,16.667 C7.499,16.608 7.404,16.545 7.312,16.476 C6.915,16.203 6.521,15.872 6.211,15.494 C5.973,15.246 5.779,14.969 5.582,14.695 C5.38,14.49 5.311,14.224 5.175,13.99 C5.047,13.625 4.929,13.252 4.876,12.857 L4.548,12.857 Z M6.262,12.857 C6.377,13.065 6.506,13.268 6.614,13.479 C6.804,13.832 7.142,14.13 7.395,14.447 C7.589,14.642 7.808,14.81 7.999,14.994 C8.578,15.469 9.269,15.67 9.949,15.904 C10.323,16.012 10.719,16.059 11.125,16.087 C11.499,16.095 11.845,16.03 12.19,15.969 C12.335,15.99 12.439,15.908 12.565,15.879 C12.855,15.85 13.086,15.67 13.359,15.584 C13.662,15.444 13.949,15.257 14.252,15.113 C14.611,14.853 14.87,14.466 15.197,14.156 C15.342,13.883 15.607,13.663 15.715,13.375 C15.789,13.194 15.902,13.031 15.99,12.858 L15.67,12.857 C15.594,13.014 15.479,13.155 15.371,13.296 C15.24,13.325 15.15,13.188 15.068,13.102 C14.998,13.021 14.932,12.939 14.862,12.858 L14.455,12.857 C14.611,13.015 14.77,13.17 14.935,13.321 C15.025,13.454 15.19,13.609 15.068,13.785 C14.941,14.073 14.648,14.271 14.421,14.498 C14.377,14.537 14.316,14.552 14.256,14.537 C14.057,14.206 13.906,13.85 13.731,13.508 C13.637,13.364 13.59,13.195 13.51,13.044 C13.481,12.979 13.44,12.918 13.399,12.857 L13.086,12.857 C13.131,12.951 13.176,13.043 13.227,13.134 C13.382,13.386 13.468,13.666 13.601,13.929 C13.76,14.174 13.885,14.433 14.061,14.674 C14.075,14.706 14.079,14.738 14.061,14.771 C13.881,14.943 13.655,15.034 13.435,15.127 C13.259,15.181 13.086,15.257 12.892,15.253 C12.838,15.238 12.791,15.199 12.787,15.138 C12.672,14.54 12.662,13.894 12.558,13.289 C12.538,13.148 12.531,13.002 12.519,12.857 L11.799,12.857 L11.879,12.911 C12.033,13.044 12.255,13.16 12.245,13.39 C12.316,13.652 12.356,14.023 12.18,14.25 C12.075,14.519 11.874,14.829 11.586,14.943 C11.327,15.102 10.776,15.116 10.539,14.94 C10.151,14.713 9.963,13.824 10.157,13.447 C10.238,13.252 10.466,13.003 10.71,12.857 L10.037,12.857 C9.69,13.181 9.518,13.6 9.491,14.064 L9.424,14.516 C9.284,14.674 9.265,14.89 9.121,15.037 C8.909,15.066 8.754,14.912 8.585,14.81 C8.474,14.706 8.488,14.523 8.542,14.394 C8.653,14.091 8.901,13.847 9.002,13.541 C9.14,13.321 9.215,13.078 9.35,12.858 L9.078,12.857 C8.959,13.118 8.84,13.379 8.697,13.631 C8.582,13.778 8.549,13.962 8.441,14.113 C8.344,14.213 8.341,14.411 8.164,14.426 C7.895,14.343 7.664,14.116 7.478,13.894 C7.427,13.649 7.596,13.458 7.708,13.264 C7.821,13.132 7.923,12.995 8.027,12.857 L7.671,12.857 C7.595,12.945 7.517,13.029 7.427,13.102 C7.319,13.156 7.254,13.31 7.114,13.264 C7.005,13.149 6.912,13.008 6.844,12.858 L6.262,12.857 Z M17.367,12.857 C17.36,12.89 17.355,12.922 17.349,12.955 C17.262,13.181 17.194,13.415 17.098,13.634 C16.975,13.868 16.914,14.127 16.752,14.347 C16.565,14.62 16.402,14.904 16.169,15.152 L15.878,15.479 C15.605,15.66 15.385,15.955 15.111,16.142 C14.953,16.253 14.82,16.4 14.65,16.49 C14.554,16.55 14.456,16.609 14.358,16.667 L14.858,16.667 C15.068,16.537 15.257,16.356 15.463,16.213 C15.881,15.731 16.442,15.329 16.766,14.792 C17.119,14.343 17.352,13.843 17.554,13.332 C17.635,13.181 17.691,13.02 17.74,12.857 L17.367,12.857 Z M18.242,12.857 C18.213,12.944 18.184,13.03 18.154,13.116 C17.971,13.584 17.787,14.052 17.511,14.483 C17.276,14.958 16.953,15.394 16.648,15.836 C16.442,16.102 16.154,16.304 15.935,16.541 C15.898,16.585 15.861,16.627 15.822,16.667 L16.207,16.667 C16.355,16.512 16.501,16.355 16.658,16.213 C16.802,16.026 16.949,15.836 17.111,15.656 C17.352,15.332 17.59,14.998 17.755,14.642 C17.874,14.436 17.993,14.231 18.09,14.016 C18.303,13.66 18.42,13.261 18.526,12.858 L18.242,12.857 Z M9.773,14.804 C9.899,15.077 10.19,15.159 10.427,15.274 C10.628,15.307 10.801,15.404 11.007,15.433 C11.057,15.451 11.05,15.505 11.053,15.548 C10.995,15.71 10.783,15.613 10.643,15.634 C10.413,15.563 10.165,15.544 9.949,15.44 C9.754,15.4 9.567,15.336 9.405,15.21 C9.369,15.188 9.391,15.145 9.398,15.113 C9.444,14.976 9.495,14.839 9.567,14.713 C9.581,14.667 9.619,14.616 9.619,14.616 L9.773,14.804 Z M12.485,14.555 C12.514,14.821 12.561,15.08 12.585,15.347 C12.585,15.415 12.518,15.454 12.468,15.483 C12.319,15.566 12.148,15.584 11.975,15.609 C11.802,15.616 11.607,15.681 11.445,15.605 C11.388,15.534 11.413,15.433 11.46,15.364 C11.64,15.199 11.888,15.206 12.058,15.012 C12.237,14.883 12.291,14.688 12.402,14.523 C12.431,14.466 12.485,14.516 12.485,14.555 L12.485,14.555 Z" id="Fill-26"></path>
            <path d="M3.389,11.905 C3.436,12.231 3.506,12.547 3.592,12.857 L3.931,12.857 C3.839,12.542 3.763,12.222 3.676,11.906 L3.389,11.905 Z M4.325,11.905 C4.333,11.95 4.335,11.989 4.33,12.019 C4.297,12.144 4.463,12.476 4.477,12.594 L4.548,12.857 L4.876,12.857 C4.873,12.828 4.869,12.799 4.866,12.771 C4.83,12.594 4.772,12.429 4.758,12.246 C4.793,12.073 4.984,12.16 5.11,12.145 C5.225,12.145 5.319,12.087 5.434,12.087 C5.628,12.113 5.919,12.005 6.005,12.249 C6.06,12.465 6.155,12.664 6.262,12.858 L6.844,12.857 C6.786,12.729 6.747,12.593 6.734,12.458 C6.749,12.379 6.752,12.271 6.846,12.25 C7.065,12.157 7.384,12.292 7.625,12.252 L7.819,12.264 C7.898,12.274 7.984,12.285 8.038,12.339 C8.031,12.454 7.931,12.53 7.876,12.627 C7.806,12.701 7.739,12.781 7.671,12.858 L8.027,12.857 C8.136,12.713 8.246,12.569 8.373,12.433 C8.603,12.21 8.963,12.163 9.265,12.264 C9.294,12.285 9.301,12.325 9.301,12.357 C9.283,12.483 9.186,12.577 9.15,12.699 C9.126,12.751 9.102,12.804 9.078,12.857 L9.35,12.857 C9.367,12.83 9.386,12.802 9.405,12.774 C9.517,12.58 9.603,12.361 9.811,12.228 C10.035,12.127 10.308,12.195 10.456,12.389 C10.524,12.422 10.553,12.343 10.607,12.335 C10.719,12.299 10.83,12.285 10.934,12.343 C10.978,12.397 11.031,12.433 11.103,12.422 C11.233,12.418 11.327,12.325 11.445,12.289 C11.629,12.264 11.856,12.235 12.021,12.325 C12.107,12.425 12.104,12.562 12.132,12.688 C12.14,12.724 12.14,12.771 12.114,12.799 C12.021,12.843 12.044,12.744 11.888,12.69 C11.888,12.69 11.633,12.58 11.531,12.537 C11.349,12.454 11.129,12.522 10.927,12.512 C10.657,12.583 10.335,12.607 10.109,12.794 C10.084,12.815 10.06,12.836 10.037,12.858 L10.71,12.857 C10.827,12.787 10.948,12.741 11.058,12.735 C11.306,12.72 11.547,12.76 11.766,12.835 L11.799,12.857 L12.519,12.857 C12.513,12.787 12.504,12.717 12.492,12.648 C12.468,12.562 12.475,12.454 12.503,12.375 C12.593,12.278 12.759,12.318 12.838,12.411 C12.936,12.552 13.012,12.705 13.086,12.858 L13.399,12.857 C13.327,12.746 13.256,12.633 13.252,12.494 C13.255,12.44 13.302,12.4 13.35,12.375 C13.528,12.35 13.727,12.365 13.906,12.378 L14.039,12.44 C14.182,12.58 14.318,12.72 14.455,12.858 L14.862,12.857 C14.762,12.739 14.656,12.624 14.529,12.526 C14.478,12.458 14.393,12.397 14.398,12.307 L14.453,12.271 C14.83,12.252 15.212,12.152 15.582,12.252 L15.715,12.303 L15.744,12.353 C15.781,12.544 15.743,12.708 15.67,12.858 L15.99,12.857 C16.029,12.783 16.063,12.707 16.087,12.627 C16.165,12.458 16.201,12.274 16.312,12.12 C16.543,12.04 16.816,12.062 17.068,12.04 L17.518,12.047 C17.586,12.109 17.528,12.21 17.515,12.285 C17.468,12.477 17.408,12.663 17.367,12.858 L17.74,12.857 C17.811,12.623 17.864,12.384 17.953,12.16 C17.992,12.131 18.022,12.016 18.039,11.905 L4.325,11.905 Z M18.463,11.905 C18.459,11.918 18.457,11.93 18.457,11.94 C18.426,12.263 18.34,12.562 18.242,12.857 L18.526,12.857 C18.541,12.805 18.555,12.752 18.568,12.699 C18.63,12.439 18.671,12.172 18.715,11.906 L18.463,11.905 L18.463,11.905 Z" id="Fill-27"></path>
            <path d="M3.264,10.952 C3.275,11.26 3.272,11.574 3.38,11.839 C3.383,11.861 3.386,11.883 3.389,11.905 L3.676,11.905 C3.664,11.862 3.651,11.818 3.639,11.774 C3.621,11.699 3.588,11.591 3.661,11.53 C3.761,11.468 3.847,11.707 3.955,11.61 C4.023,11.513 4.192,11.387 4.221,11.508 C4.255,11.647 4.305,11.794 4.325,11.905 L18.039,11.905 C18.055,11.814 18.063,11.727 18.065,11.695 C18.067,11.651 18.065,11.605 18.094,11.569 C18.161,11.537 18.23,11.618 18.306,11.628 C18.38,11.639 18.463,11.58 18.518,11.606 C18.559,11.666 18.484,11.816 18.463,11.906 L18.715,11.905 C18.737,11.767 18.761,11.627 18.788,11.491 C18.84,11.319 18.843,11.137 18.85,10.952 L18.492,10.952 C18.505,10.959 18.516,10.968 18.526,10.978 L18.551,11.077 C18.579,11.145 18.543,11.209 18.503,11.26 C18.442,11.314 18.373,11.361 18.291,11.343 C18.205,11.335 18.145,11.253 18.101,11.185 C18.086,11.145 18.135,10.985 18.16,10.953 L18.162,10.951 L17.704,10.952 C17.721,11.174 17.785,11.376 17.755,11.605 C17.73,11.666 17.658,11.692 17.601,11.709 C17.478,11.746 17.356,11.699 17.227,11.713 C16.834,11.728 16.439,11.785 16.051,11.75 C15.87,11.767 15.661,11.753 15.482,11.782 C15.306,11.839 15.094,11.8 14.906,11.832 C14.73,11.803 14.557,11.846 14.377,11.829 C14.097,11.789 13.78,11.8 13.5,11.835 C13.028,11.8 12.546,11.829 12.064,11.814 C11.795,11.774 11.492,11.825 11.204,11.821 C10.765,11.789 10.33,11.85 9.902,11.821 C9.196,11.803 8.47,11.821 7.762,11.81 C7.459,11.818 7.19,11.717 6.877,11.76 C6.394,11.72 5.883,11.742 5.434,11.62 C5.247,11.638 5.039,11.627 4.855,11.63 C4.804,11.627 4.79,11.569 4.779,11.53 C4.744,11.336 4.662,11.147 4.622,10.951 L4.13,10.952 C4.151,10.997 4.159,11.033 4.143,11.04 L4.022,11.201 C3.968,11.251 3.844,11.246 3.762,11.231 C3.704,11.234 3.683,11.166 3.654,11.126 C3.638,11.102 3.621,11.021 3.612,10.952 L3.264,10.952" id="Fill-28"></path>
            <path d="M3.297,10 C3.256,10.2 3.252,10.417 3.24,10.626 C3.254,10.733 3.26,10.842 3.264,10.953 L3.612,10.952 C3.606,10.908 3.603,10.87 3.606,10.853 C3.624,10.824 3.668,10.739 3.701,10.731 C3.773,10.721 3.911,10.723 3.968,10.751 C4.019,10.765 4.094,10.872 4.13,10.952 L4.622,10.952 C4.593,10.808 4.587,10.662 4.639,10.508 C4.668,10.451 4.725,10.389 4.787,10.375 C5.268,10.379 5.761,10.35 6.25,10.368 C6.351,10.325 6.463,10.379 6.57,10.353 C6.926,10.303 7.276,10.375 7.639,10.364 C7.974,10.303 8.273,10.455 8.607,10.44 C8.898,10.343 9.265,10.396 9.574,10.407 C9.754,10.407 9.938,10.35 10.11,10.404 C10.301,10.429 10.506,10.415 10.686,10.375 C11.046,10.393 11.402,10.353 11.759,10.343 C11.859,10.325 11.949,10.368 12.05,10.346 C12.335,10.318 12.605,10.346 12.881,10.307 C13.342,10.339 13.834,10.307 14.291,10.35 C14.432,10.321 14.59,10.346 14.73,10.346 C15.395,10.292 16.107,10.296 16.784,10.296 C16.996,10.264 17.227,10.285 17.442,10.26 C17.504,10.267 17.565,10.285 17.611,10.325 C17.697,10.469 17.686,10.656 17.701,10.831 C17.7,10.873 17.701,10.913 17.704,10.953 L18.162,10.952 C18.25,10.88 18.399,10.892 18.492,10.952 L18.85,10.952 C18.852,10.892 18.855,10.831 18.86,10.771 C18.85,10.511 18.833,10.253 18.805,9.999 L18.529,10 C18.572,10.322 18.6,10.695 18.6,10.695 C18.6,10.695 18.49,10.608 18.418,10.616 C18.343,10.624 18.16,10.724 18.152,10.709 C18.156,10.526 18.145,10.332 18.107,10.152 C18.086,10.105 18.078,10.053 18.073,10 L17.359,10 C17.341,10.007 17.324,10.015 17.31,10.026 C17.14,10.04 16.96,10.037 16.802,10.062 C16.626,10.022 16.456,10.083 16.28,10.062 L16.259,10.04 C16.258,10.027 16.257,10.013 16.256,10 L16.004,10 C16.002,10.016 15.999,10.03 15.996,10.044 C15.941,10.123 15.834,10.105 15.756,10.094 C15.698,10.091 15.654,10.055 15.6,10.04 L15.363,10.022 C15.344,10.017 15.326,10.009 15.31,9.999 L14.956,10 C15.001,10.028 15.046,10.057 15.086,10.094 C15.107,10.141 15.05,10.134 15.029,10.144 C14.863,10.119 14.688,10.116 14.511,10.112 C14.41,10.077 14.313,10.022 14.197,10.022 C14.182,10.015 14.167,10.008 14.151,10 L13.836,10 C13.881,10.031 13.927,10.059 13.975,10.08 C13.96,10.109 13.914,10.098 13.885,10.109 C13.74,10.094 13.587,10.105 13.453,10.062 C13.406,10.043 13.36,10.022 13.315,10 L12.773,10 C12.774,10.01 12.773,10.018 12.77,10.026 C12.713,10.065 12.647,10.08 12.575,10.083 C12.514,10.083 12.446,10.091 12.402,10.044 C12.391,10.029 12.379,10.015 12.368,10 L12.051,10 C12.035,10.039 12.006,10.083 11.956,10.08 C11.889,10.07 11.816,10.058 11.771,9.999 L11.519,10 C11.519,10.019 11.517,10.039 11.514,10.059 C11.496,10.112 11.439,10.105 11.396,10.116 C11.332,10.116 11.304,10.053 11.281,10.001 L11.073,10 C11.074,10.069 11.056,10.136 10.999,10.174 C10.949,10.174 10.87,10.188 10.844,10.127 C10.809,10.089 10.803,10.045 10.81,10.001 L10.59,10 C10.569,10.073 10.533,10.137 10.452,10.17 C10.348,10.181 10.254,10.166 10.161,10.138 C10.139,10.119 10.143,10.08 10.157,10.059 C10.171,10.039 10.185,10.02 10.198,10 L9.923,10 C9.91,10.018 9.898,10.036 9.887,10.055 C9.811,10.174 9.661,10.094 9.549,10.119 C9.513,10.119 9.524,10.069 9.528,10.044 C9.534,10.029 9.54,10.015 9.547,10 L9.267,10 C9.243,10.027 9.22,10.054 9.196,10.08 C9.024,10.17 8.787,10.152 8.589,10.13 C8.556,10.112 8.539,10.072 8.56,10.04 C8.581,10.027 8.602,10.014 8.622,10 L7.99,10 C7.791,10.06 7.552,10.064 7.356,10 L5.91,10 C5.865,10.018 5.801,9.992 5.758,10.012 C5.582,10.048 5.387,10.022 5.207,10.019 C5.125,10.017 5.044,10.011 4.964,10.001 L4.294,10 C4.263,10.167 4.232,10.333 4.2,10.498 C4.139,10.537 4.085,10.465 4.023,10.443 C3.966,10.382 3.898,10.299 3.804,10.343 C3.743,10.357 3.678,10.372 3.639,10.425 C3.613,10.433 3.592,10.418 3.585,10.393 C3.589,10.259 3.603,10.129 3.621,10 L3.297,10" id="Fill-29"></path>
            <path d="M3.466,9.048 C3.44,9.163 3.422,9.28 3.426,9.407 C3.333,9.54 3.344,9.717 3.326,9.882 C3.315,9.92 3.305,9.96 3.297,10 L3.621,10 C3.656,9.748 3.71,9.501 3.75,9.249 C3.768,9.183 3.784,9.115 3.799,9.048 L3.466,9.048 Z M4.467,9.048 C4.425,9.249 4.382,9.449 4.362,9.659 C4.338,9.772 4.316,9.886 4.294,10.001 L4.964,10 C4.878,9.99 4.793,9.973 4.711,9.95 C4.661,9.886 4.617,9.821 4.635,9.731 C4.628,9.484 4.683,9.264 4.752,9.048 L4.467,9.048 Z M6.236,9.048 C6.124,9.349 6.059,9.668 5.945,9.969 C5.935,9.984 5.923,9.994 5.91,9.999 L7.356,10 C7.35,9.998 7.343,9.996 7.337,9.994 C7.304,9.972 7.326,9.929 7.337,9.904 C7.65,9.652 8.038,9.58 8.384,9.403 C8.603,9.35 8.78,9.191 8.995,9.123 C9.056,9.104 9.111,9.078 9.164,9.048 L8.735,9.048 C8.651,9.088 8.566,9.124 8.478,9.152 C8.157,9.274 7.841,9.403 7.535,9.559 C7.29,9.659 7.067,9.843 6.783,9.803 C6.747,9.781 6.722,9.745 6.747,9.709 C6.999,9.49 7.33,9.443 7.618,9.299 C7.71,9.263 7.951,9.162 8.224,9.048 L7.598,9.048 C7.342,9.118 7.104,9.249 6.826,9.26 C6.787,9.242 6.729,9.217 6.722,9.166 C6.716,9.119 6.727,9.082 6.746,9.048 L6.236,9.048 Z M9.571,9.048 C9.517,9.085 9.455,9.123 9.384,9.17 C8.988,9.486 8.539,9.674 8.125,9.947 C8.083,9.968 8.038,9.985 7.99,10 L8.622,10 C8.974,9.761 9.289,9.429 9.639,9.184 C9.699,9.097 9.768,9.077 9.806,9.047 L9.571,9.048 Z M10.034,9.048 C10.029,9.052 10.024,9.057 10.019,9.062 C9.936,9.167 9.862,9.277 9.801,9.393 C9.648,9.606 9.448,9.802 9.267,10.001 L9.547,10 C9.619,9.86 9.754,9.769 9.866,9.645 C9.949,9.519 10.041,9.421 10.113,9.289 C10.163,9.256 10.192,9.199 10.189,9.134 C10.189,9.091 10.179,9.101 10.15,9.068 C10.13,9.063 10.112,9.055 10.096,9.048 L10.034,9.048 Z M10.47,9.048 C10.578,9.103 10.69,9.15 10.812,9.17 C10.927,9.163 11.05,9.184 11.154,9.152 C11.216,9.198 11.316,9.13 11.355,9.209 C11.37,9.325 11.431,9.418 11.471,9.522 C11.439,9.693 11.522,9.835 11.519,10 L11.771,10 C11.765,9.992 11.76,9.984 11.755,9.976 C11.701,9.774 11.636,9.573 11.625,9.353 C11.597,9.285 11.554,9.22 11.557,9.148 C11.607,9.109 11.654,9.173 11.68,9.209 C11.795,9.472 12.071,9.67 12.058,9.982 C12.056,9.988 12.054,9.994 12.051,9.999 L12.368,10 C12.149,9.713 12.001,9.399 11.809,9.102 C11.799,9.076 11.815,9.057 11.834,9.048 L10.47,9.048 Z M11.9,9.048 C11.942,9.075 11.945,9.153 12.014,9.159 C12.157,9.277 12.302,9.429 12.439,9.577 C12.565,9.695 12.662,9.832 12.763,9.954 C12.768,9.968 12.773,9.985 12.773,10.001 L13.315,10 C13.175,9.929 13.044,9.838 12.914,9.745 C12.644,9.535 12.432,9.247 12.154,9.049 L11.9,9.048 Z M12.388,9.048 C12.615,9.137 12.785,9.348 13.004,9.465 C13.215,9.612 13.464,9.67 13.655,9.867 C13.715,9.911 13.774,9.959 13.836,10.001 L14.151,10 C13.879,9.861 13.637,9.669 13.396,9.465 C13.147,9.418 12.963,9.217 12.755,9.069 C12.742,9.062 12.729,9.056 12.717,9.049 L12.388,9.048 Z M13.082,9.048 C13.117,9.065 13.151,9.079 13.186,9.087 C13.373,9.148 13.56,9.195 13.724,9.314 C13.846,9.357 13.94,9.472 14.061,9.522 C14.273,9.667 14.557,9.627 14.74,9.839 C14.804,9.913 14.881,9.955 14.956,10 L15.31,10 C15.217,9.948 15.151,9.848 15.054,9.799 C14.975,9.774 14.896,9.728 14.838,9.663 C14.69,9.641 14.579,9.533 14.445,9.479 C14.313,9.4 14.17,9.346 14.033,9.281 C13.912,9.171 13.767,9.123 13.635,9.047 L13.082,9.048 Z M13.923,9.048 C13.943,9.055 13.963,9.062 13.982,9.069 L14.09,9.083 C14.173,9.188 14.316,9.141 14.417,9.195 C14.598,9.256 14.791,9.274 14.941,9.397 C15.176,9.44 15.385,9.537 15.611,9.587 C15.736,9.677 15.878,9.756 15.989,9.86 C16.011,9.898 16.01,9.952 16.004,9.999 L16.256,10 C16.238,9.769 16.216,9.536 16.09,9.35 C16.05,9.251 16.018,9.148 15.981,9.048 L15.576,9.048 C15.667,9.119 15.678,9.232 15.69,9.339 C15.673,9.375 15.641,9.407 15.593,9.393 C15.241,9.325 14.94,9.145 14.6,9.048 L13.923,9.048 Z M17.385,9.048 C17.403,9.09 17.422,9.132 17.442,9.173 C17.489,9.403 17.633,9.594 17.644,9.839 C17.628,9.984 17.469,9.962 17.359,10.001 L18.073,10 C18.065,9.918 18.063,9.833 18.025,9.764 C17.963,9.524 17.901,9.283 17.828,9.048 L17.385,9.048 Z M18.353,9.048 C18.402,9.254 18.445,9.463 18.475,9.677 C18.494,9.762 18.513,9.877 18.529,10 L18.805,10 C18.776,9.738 18.735,9.481 18.676,9.231 C18.662,9.169 18.647,9.109 18.631,9.049 L18.353,9.048 Z M10.198,10 C10.334,9.813 10.487,9.634 10.582,9.429 C10.632,9.339 10.538,9.285 10.524,9.209 C10.495,9.184 10.459,9.166 10.419,9.173 C10.337,9.27 10.312,9.393 10.254,9.501 C10.17,9.676 10.033,9.833 9.923,9.999 L10.198,10 Z M10.81,10 C10.816,9.951 10.837,9.9 10.844,9.857 C10.902,9.72 10.895,9.555 10.938,9.411 C10.941,9.368 10.906,9.328 10.866,9.314 C10.801,9.307 10.736,9.317 10.708,9.378 C10.635,9.476 10.693,9.605 10.665,9.717 C10.62,9.799 10.616,9.907 10.59,10 L10.81,10 Z M11.281,10 C11.277,9.991 11.273,9.981 11.269,9.972 C11.223,9.803 11.28,9.63 11.306,9.469 C11.298,9.407 11.262,9.339 11.193,9.321 C11.144,9.314 11.089,9.328 11.071,9.375 C11.05,9.469 11.014,9.594 11.086,9.677 C11.097,9.76 11.068,9.824 11.061,9.897 C11.068,9.929 11.073,9.965 11.073,10.001 L11.281,10 L11.281,10 Z" id="Fill-30"></path>
            <path d="M3.625,8.453 C3.623,8.461 3.62,8.47 3.617,8.479 C3.581,8.674 3.51,8.855 3.466,9.049 L3.799,9.048 C3.827,8.925 3.851,8.8 3.876,8.677 L3.96,8.453 L3.625,8.453 Z M4.609,8.453 C4.587,8.524 4.566,8.596 4.542,8.666 C4.521,8.795 4.494,8.922 4.467,9.048 L4.752,9.048 C4.814,8.851 4.886,8.657 4.929,8.452 L4.609,8.453 Z M6.544,8.453 C6.461,8.581 6.405,8.722 6.319,8.85 C6.288,8.915 6.261,8.98 6.236,9.048 L6.746,9.048 C6.762,9.02 6.783,8.995 6.804,8.968 C6.926,8.936 7.028,8.853 7.15,8.813 C7.529,8.801 8.321,8.564 8.743,8.452 L7.771,8.453 C7.569,8.489 7.364,8.518 7.153,8.537 C7.096,8.515 7.028,8.522 6.973,8.497 C6.977,8.481 6.982,8.466 6.987,8.453 L6.544,8.453 Z M9.362,8.453 C9.283,8.475 9.212,8.497 9.187,8.494 C8.96,8.54 7.834,8.95 7.625,9.04 C7.616,9.043 7.607,9.045 7.598,9.048 L8.224,9.048 C8.642,8.873 9.135,8.669 9.281,8.619 C9.323,8.581 9.55,8.507 9.623,8.453 L9.362,8.453 Z M9.893,8.453 C9.939,8.629 10.032,8.786 10.196,8.9 C10.288,8.948 10.377,9.001 10.47,9.048 L11.834,9.048 C11.843,9.044 11.851,9.041 11.859,9.04 C11.877,9.038 11.89,9.041 11.9,9.048 L12.154,9.048 C12.148,9.043 12.14,9.038 12.132,9.033 C12.093,9.011 12.06,8.965 12.06,8.918 C12.064,8.893 12.086,8.875 12.11,8.868 C12.204,8.871 12.255,8.99 12.335,9.03 C12.353,9.035 12.37,9.041 12.388,9.048 L12.717,9.048 C12.552,8.955 12.403,8.823 12.226,8.752 C12.194,8.728 12.157,8.684 12.187,8.644 C12.212,8.579 12.247,8.517 12.276,8.452 L12.078,8.453 C12.034,8.561 11.967,8.66 11.869,8.745 C11.75,8.849 11.588,8.838 11.44,8.874 C11.092,8.957 10.768,8.846 10.509,8.644 C10.411,8.603 10.348,8.534 10.302,8.453 L9.893,8.453 Z M13.056,8.453 C13.116,8.468 13.176,8.485 13.233,8.508 C13.558,8.602 13.92,8.609 14.241,8.717 C14.492,8.756 14.72,8.853 14.971,8.9 C15.162,8.95 15.356,8.997 15.554,9.033 C15.562,9.038 15.568,9.043 15.576,9.048 L15.981,9.048 C15.94,8.941 15.895,8.836 15.827,8.742 C15.798,8.639 15.749,8.545 15.693,8.453 L15.375,8.453 C15.432,8.553 15.494,8.65 15.507,8.77 C15.496,8.803 15.46,8.821 15.428,8.821 C15.263,8.796 15.111,8.728 14.953,8.688 C14.72,8.651 14.514,8.544 14.27,8.544 C14.141,8.531 14.024,8.489 13.906,8.453 L13.056,8.453 Z M17.166,8.453 C17.238,8.652 17.303,8.854 17.385,9.048 L17.828,9.048 C17.765,8.844 17.691,8.644 17.6,8.453 L17.166,8.453 Z M18.183,8.453 C18.245,8.648 18.303,8.847 18.353,9.049 L18.631,9.048 C18.575,8.845 18.502,8.648 18.424,8.453 L18.183,8.453 Z M9.164,9.048 C9.307,8.966 9.43,8.858 9.574,8.791 C9.647,8.757 9.567,8.637 9.507,8.659 C9.237,8.76 8.994,8.924 8.735,9.048 L9.164,9.048 Z M9.806,9.048 C9.827,9.03 9.839,9.01 9.833,8.972 C9.787,8.925 9.731,8.906 9.707,8.944 C9.666,8.981 9.622,9.014 9.571,9.048 L9.806,9.048 Z M10.096,9.048 C10.074,9.039 10.055,9.034 10.034,9.048 L10.096,9.048 Z M13.635,9.048 C13.624,9.041 13.614,9.036 13.605,9.03 C13.424,8.993 13.255,8.933 13.097,8.842 C12.949,8.825 12.824,8.756 12.68,8.731 C12.632,8.731 12.571,8.72 12.565,8.778 C12.579,8.933 12.735,8.898 12.84,8.949 C12.925,8.956 13.004,9.008 13.082,9.047 L13.635,9.048 Z M14.6,9.048 C14.596,9.046 14.591,9.045 14.586,9.044 C14.316,8.95 14.039,8.871 13.766,8.785 C13.532,8.728 13.287,8.706 13.075,8.594 C13.018,8.573 12.942,8.58 12.892,8.605 C12.863,8.62 12.849,8.659 12.87,8.684 C12.996,8.796 13.184,8.76 13.316,8.85 C13.517,8.922 13.722,8.979 13.923,9.048 L14.6,9.048 L14.6,9.048 Z" id="Fill-31"></path>
            <path d="M3.857,7.854 C3.768,8.049 3.69,8.248 3.625,8.452 L3.96,8.453 L4.078,8.141 C4.135,8.048 4.184,7.952 4.232,7.854 L3.857,7.854 Z M4.804,7.854 C4.726,8.048 4.669,8.251 4.609,8.453 L4.929,8.453 C4.929,8.45 4.93,8.448 4.93,8.447 C4.965,8.236 5.054,8.046 5.139,7.855 L4.804,7.854 Z M6.991,7.854 C6.953,7.899 6.917,7.944 6.883,7.99 C6.779,8.094 6.671,8.206 6.628,8.342 C6.597,8.378 6.569,8.415 6.544,8.453 L6.987,8.453 C7.022,8.366 7.086,8.331 7.159,8.25 C7.245,8.149 9.165,8.164 9.201,8.005 C9.265,7.904 7.321,8.048 7.495,7.864 C7.498,7.861 7.501,7.858 7.504,7.855 L6.991,7.854 Z M9.858,7.854 C9.855,7.88 9.855,7.907 9.862,7.936 C9.847,8.112 9.85,8.29 9.893,8.452 L10.302,8.453 C10.247,8.355 10.216,8.241 10.181,8.141 C10.173,8.038 10.189,7.944 10.218,7.855 L9.858,7.854 Z M10.495,7.854 C10.477,7.879 10.457,7.901 10.451,7.928 C10.411,7.982 10.408,8.104 10.311,8.083 C10.23,8.004 10.284,7.93 10.326,7.854 L10.495,7.854 Z M10.792,7.854 C10.763,7.878 10.725,7.879 10.689,7.867 C10.684,7.863 10.679,7.859 10.675,7.855 L10.792,7.854 Z M11.304,7.854 C11.288,7.926 11.247,7.993 11.232,8.065 C11.21,8.083 11.182,8.083 11.153,8.083 C11.124,8.01 11.118,7.93 11.102,7.854 L11.304,7.854 Z M11.797,7.854 L11.797,7.856 C11.789,7.925 11.765,7.997 11.703,8.033 C11.617,8.015 11.689,7.889 11.588,7.867 C11.509,7.831 11.509,7.975 11.438,7.893 C11.426,7.882 11.418,7.87 11.413,7.855 L11.797,7.854 Z M11.958,7.854 C11.969,7.912 11.978,7.969 12.009,8.019 C12.056,8.033 12.138,8.015 12.142,8.09 C12.142,8.219 12.123,8.341 12.078,8.453 L12.276,8.453 C12.296,8.407 12.313,8.362 12.319,8.313 C12.377,8.238 12.446,8.317 12.503,8.328 C12.682,8.385 12.874,8.407 13.056,8.453 L13.906,8.453 C13.819,8.427 13.731,8.404 13.637,8.4 C13.468,8.346 13.291,8.307 13.1,8.299 C12.838,8.231 12.528,8.249 12.349,8.008 C12.335,7.95 12.362,7.9 12.417,7.886 C12.658,7.876 12.892,7.863 13.124,7.855 L11.958,7.854 Z M13.733,7.854 C13.82,7.858 13.908,7.864 13.996,7.871 L14.273,7.856 C14.303,7.856 14.334,7.855 14.364,7.854 L13.733,7.854 Z M14.762,7.854 C14.845,7.86 14.926,7.874 15,7.9 C15.025,7.929 15.082,7.961 15.072,8.008 C14.799,8.048 14.471,8.087 14.187,8.026 C14.004,8.037 13.83,8.019 13.641,8.037 C13.503,8.076 13.334,7.936 13.241,8.087 C13.233,8.123 13.248,8.173 13.291,8.181 C13.536,8.213 13.791,8.231 14.051,8.234 C14.176,8.206 14.313,8.228 14.445,8.228 C14.759,8.234 15.137,8.119 15.353,8.411 C15.359,8.425 15.367,8.439 15.375,8.453 L15.693,8.453 C15.633,8.352 15.564,8.254 15.507,8.152 C15.415,8.054 15.322,7.956 15.234,7.854 L14.762,7.854 Z M16.924,7.854 C16.945,7.911 16.966,7.968 16.982,8.026 C17.055,8.163 17.113,8.307 17.166,8.453 L17.6,8.453 C17.59,8.434 17.581,8.415 17.572,8.397 C17.51,8.204 17.402,8.032 17.309,7.854 L16.924,7.854 Z M17.932,7.854 C18.015,8.039 18.087,8.227 18.169,8.411 C18.174,8.424 18.178,8.438 18.183,8.452 L18.424,8.453 C18.344,8.253 18.259,8.056 18.182,7.855 L17.932,7.854 Z M8.743,8.453 C8.781,8.442 8.816,8.433 8.847,8.425 C8.901,8.343 9.6,8.351 9.564,8.189 C9.553,8.142 8.207,8.35 8.074,8.39 C7.974,8.412 7.873,8.434 7.771,8.452 L8.743,8.453 Z M9.623,8.453 C9.631,8.446 9.638,8.44 9.642,8.435 C9.627,8.38 9.484,8.416 9.362,8.452 L9.623,8.453 L9.623,8.453 Z" id="Fill-32"></path>
            <path d="M4.249,7.143 C4.102,7.374 3.971,7.61 3.857,7.855 L4.232,7.854 C4.351,7.612 4.456,7.362 4.627,7.143 L4.249,7.143 Z M5.238,7.143 C5.188,7.214 5.138,7.286 5.088,7.357 C4.963,7.51 4.875,7.678 4.804,7.854 L5.139,7.854 C5.15,7.83 5.161,7.806 5.171,7.781 C5.29,7.562 5.418,7.348 5.568,7.144 L5.238,7.143 Z M7.736,7.143 C7.686,7.186 7.636,7.228 7.585,7.267 C7.386,7.451 7.168,7.647 6.991,7.855 L7.504,7.854 C7.654,7.711 7.939,7.767 8.15,7.77 L9.108,7.802 C9.276,7.802 9.393,7.838 9.568,7.802 C9.604,7.767 9.664,7.805 9.663,7.734 C9.663,7.647 9.44,7.707 9.329,7.65 C9.06,7.639 8.794,7.583 8.531,7.602 C8.301,7.62 8.085,7.558 7.858,7.548 C7.834,7.533 7.785,7.507 7.819,7.472 C8.023,7.262 8.977,7.445 9.16,7.439 C9.182,7.431 9.197,7.395 9.208,7.373 C9.202,7.32 8.613,7.244 8.415,7.144 L7.736,7.143 Z M9.133,7.143 C9.234,7.19 9.332,7.236 9.42,7.267 L9.567,7.328 C9.685,7.404 9.833,7.415 9.956,7.49 C10.025,7.631 9.88,7.723 9.858,7.854 L10.218,7.854 C10.253,7.746 10.308,7.644 10.361,7.543 C10.461,7.396 10.586,7.236 10.743,7.143 L10.237,7.143 C10.161,7.228 10.088,7.34 9.967,7.292 C9.875,7.245 9.787,7.185 9.692,7.143 L9.133,7.143 Z M11.692,7.143 C11.737,7.169 11.78,7.199 11.822,7.23 C11.916,7.281 11.998,7.371 12.077,7.442 C12.11,7.468 12.096,7.518 12.092,7.55 C12.038,7.611 11.897,7.619 11.926,7.727 C11.943,7.767 11.951,7.81 11.958,7.854 L13.124,7.854 C13.326,7.849 13.528,7.847 13.733,7.855 L14.364,7.854 C14.496,7.851 14.632,7.844 14.762,7.854 L15.234,7.854 C15.151,7.757 15.072,7.658 15,7.555 C14.848,7.434 14.734,7.272 14.594,7.143 L14.202,7.143 C14.023,7.176 13.848,7.218 13.676,7.27 L13.311,7.292 C13.152,7.285 12.992,7.299 12.846,7.332 C12.65,7.343 12.495,7.447 12.316,7.49 C12.208,7.454 12.27,7.307 12.194,7.234 C12.184,7.202 12.189,7.171 12.202,7.144 L11.692,7.143 Z M12.52,7.143 C12.496,7.153 12.473,7.163 12.448,7.174 C12.427,7.184 12.424,7.213 12.435,7.234 C12.468,7.274 12.518,7.267 12.565,7.274 C12.659,7.227 12.755,7.185 12.852,7.144 L12.52,7.143 Z M16.558,7.143 L16.73,7.396 C16.785,7.552 16.862,7.7 16.924,7.855 L17.309,7.854 C17.304,7.846 17.299,7.837 17.295,7.828 C17.217,7.589 17.103,7.36 16.974,7.144 L16.558,7.143 Z M17.575,7.143 C17.624,7.243 17.672,7.344 17.716,7.447 C17.8,7.579 17.869,7.716 17.932,7.855 L18.182,7.854 C18.17,7.825 18.158,7.794 18.147,7.763 C18.012,7.574 17.947,7.351 17.846,7.143 L17.575,7.143 Z M10.326,7.854 C10.342,7.826 10.356,7.798 10.361,7.77 C10.404,7.752 10.509,7.709 10.526,7.788 C10.524,7.814 10.511,7.836 10.495,7.855 L10.326,7.854 Z M10.675,7.854 C10.62,7.802 10.617,7.706 10.53,7.673 C10.491,7.68 10.437,7.684 10.404,7.658 C10.382,7.641 10.386,7.601 10.4,7.579 C10.487,7.522 10.598,7.518 10.707,7.529 L10.75,7.579 C10.821,7.644 10.836,7.748 10.807,7.838 C10.802,7.845 10.797,7.85 10.792,7.855 L10.675,7.854 Z M11.102,7.854 C11.098,7.836 11.094,7.819 11.088,7.803 C11.06,7.727 10.976,7.651 11.013,7.565 C11.023,7.547 11.041,7.525 11.063,7.522 C11.182,7.511 11.246,7.637 11.293,7.72 C11.314,7.768 11.314,7.812 11.304,7.855 L11.102,7.854 Z M11.413,7.854 C11.4,7.819 11.405,7.775 11.415,7.741 C11.427,7.669 11.491,7.615 11.56,7.598 C11.628,7.583 11.678,7.615 11.729,7.651 C11.785,7.705 11.797,7.776 11.797,7.854 L11.413,7.854 Z M13.583,7.439 C13.749,7.407 13.91,7.368 14.075,7.332 C14.216,7.339 14.375,7.26 14.492,7.35 C14.586,7.411 14.708,7.476 14.69,7.602 C14.586,7.681 14.432,7.698 14.303,7.673 C13.719,7.655 13.162,7.709 12.585,7.717 L12.331,7.734 C12.294,7.717 12.287,7.681 12.298,7.648 C12.417,7.655 12.489,7.558 12.601,7.548 C12.68,7.508 12.784,7.529 12.873,7.504 L13.305,7.45 L13.583,7.439 L13.583,7.439 Z" id="Fill-33"></path>
            <path d="M4.907,6.19 C4.905,6.195 4.903,6.199 4.902,6.202 C4.79,6.415 4.603,6.59 4.484,6.799 C4.402,6.913 4.324,7.027 4.249,7.144 L4.627,7.143 C4.646,7.116 4.668,7.091 4.69,7.065 C4.855,6.771 5.11,6.53 5.29,6.242 C5.305,6.224 5.319,6.207 5.335,6.19 L4.907,6.19 Z M5.964,6.19 C5.696,6.49 5.462,6.821 5.238,7.143 L5.568,7.143 C5.665,7.011 5.77,6.882 5.887,6.76 C6.035,6.587 6.135,6.371 6.319,6.234 C6.339,6.22 6.36,6.206 6.381,6.191 L5.964,6.19 Z M9.241,6.19 C8.886,6.322 8.565,6.538 8.236,6.731 C8.063,6.844 7.9,7.001 7.736,7.143 L8.415,7.143 C8.356,7.114 8.332,7.083 8.365,7.049 C8.539,6.873 8.848,7.011 9.133,7.144 L9.692,7.143 C9.627,7.113 9.559,7.091 9.484,7.087 C9.297,6.957 9.082,6.893 8.869,6.821 C8.837,6.81 8.852,6.774 8.855,6.756 C8.913,6.666 8.999,6.752 9.071,6.749 C9.168,6.81 9.291,6.814 9.402,6.842 C9.553,6.943 9.732,6.972 9.891,7.051 C9.923,7.051 9.949,7.026 9.959,7.001 C9.967,6.957 9.935,6.925 9.902,6.907 C9.811,6.907 9.758,6.824 9.671,6.817 C9.574,6.731 9.466,6.673 9.362,6.601 C9.337,6.576 9.33,6.53 9.355,6.504 C9.391,6.454 9.444,6.404 9.51,6.4 C9.682,6.353 9.74,6.561 9.873,6.605 C10.067,6.709 10.125,6.929 10.29,7.058 L10.287,7.094 C10.27,7.108 10.253,7.125 10.237,7.143 L10.743,7.143 C10.754,7.136 10.766,7.129 10.778,7.123 C11.005,7.021 11.31,7.021 11.56,7.079 C11.606,7.095 11.649,7.117 11.692,7.143 L12.202,7.143 C12.212,7.123 12.228,7.104 12.244,7.087 C12.535,6.799 12.892,6.44 13.324,6.655 L13.382,6.713 C13.385,6.828 13.233,6.796 13.169,6.857 C12.948,6.938 12.736,7.045 12.52,7.143 L12.852,7.143 C13.023,7.07 13.198,7.001 13.367,6.911 C13.662,6.806 13.979,6.911 14.212,7.094 C14.212,7.108 14.227,7.126 14.216,7.141 C14.211,7.142 14.207,7.143 14.202,7.144 L14.594,7.143 C14.541,7.094 14.484,7.05 14.421,7.015 C14.212,6.832 13.971,6.713 13.74,6.576 C13.532,6.457 13.295,6.418 13.094,6.292 C13.015,6.243 12.927,6.214 12.836,6.19 L11.799,6.19 C11.8,6.193 11.801,6.196 11.802,6.199 C11.783,6.389 11.704,6.551 11.64,6.724 C11.618,6.738 11.614,6.76 11.589,6.756 C11.51,6.551 11.654,6.396 11.644,6.199 C11.646,6.196 11.647,6.194 11.648,6.191 L11.413,6.19 C11.416,6.328 11.387,6.453 11.352,6.576 C11.298,6.645 11.37,6.756 11.269,6.799 C11.154,6.839 11.011,6.835 10.888,6.806 L10.852,6.767 C10.823,6.59 10.834,6.404 10.827,6.23 C10.822,6.218 10.817,6.205 10.814,6.191 L9.241,6.19 Z M11.033,6.19 C11.042,6.201 11.049,6.211 11.053,6.224 C11.057,6.328 10.981,6.497 11.103,6.551 C11.15,6.547 11.187,6.511 11.197,6.472 L11.204,6.267 L11.242,6.19 L11.033,6.19 Z M15.719,6.19 C16.006,6.434 16.219,6.742 16.496,7.022 L16.518,7.084 L16.558,7.143 L16.974,7.143 C16.955,7.112 16.936,7.081 16.917,7.051 C16.81,6.936 16.748,6.803 16.668,6.673 C16.52,6.518 16.414,6.347 16.275,6.191 L15.719,6.19 Z M17.004,6.19 C17.141,6.375 17.264,6.569 17.389,6.756 C17.447,6.886 17.512,7.014 17.575,7.144 L17.846,7.143 C17.832,7.114 17.817,7.086 17.802,7.058 C17.723,6.929 17.727,6.76 17.611,6.641 C17.576,6.493 17.446,6.378 17.356,6.252 C17.33,6.233 17.307,6.212 17.285,6.191 L17.004,6.19 Z M10.463,6.504 C10.445,6.421 10.377,6.317 10.452,6.238 C10.47,6.224 10.492,6.213 10.51,6.206 C10.549,6.213 10.596,6.206 10.614,6.248 C10.574,6.425 10.607,6.619 10.654,6.785 C10.632,6.849 10.553,6.875 10.499,6.903 C10.373,6.925 10.348,6.771 10.247,6.727 C10.136,6.616 10.06,6.479 9.927,6.389 C9.912,6.364 9.919,6.328 9.927,6.299 C9.97,6.248 10.031,6.238 10.092,6.252 L10.147,6.288 C10.244,6.425 10.297,6.598 10.445,6.691 C10.478,6.706 10.527,6.691 10.535,6.652 C10.553,6.583 10.478,6.558 10.463,6.504 Z M12.114,6.702 C12.136,6.709 12.165,6.724 12.187,6.706 C12.319,6.565 12.406,6.256 12.662,6.331 C12.694,6.357 12.737,6.371 12.755,6.415 C12.766,6.49 12.688,6.482 12.644,6.511 C12.46,6.713 12.24,6.853 12.047,7.047 C11.992,7.073 11.956,7.022 11.917,6.997 C11.759,6.821 11.906,6.594 11.949,6.415 C12.021,6.335 12.047,6.184 12.183,6.199 C12.244,6.188 12.291,6.213 12.345,6.23 L12.338,6.274 C12.24,6.378 12.153,6.486 12.082,6.601 C12.068,6.637 12.086,6.673 12.114,6.702 L12.114,6.702 Z" id="Fill-34"></path>
            <path d="M5.77,5.238 C5.744,5.264 5.72,5.292 5.696,5.321 C5.556,5.508 5.401,5.659 5.229,5.817 C5.145,5.95 4.982,6.049 4.907,6.191 L5.335,6.19 C5.579,5.912 5.883,5.677 6.107,5.389 C6.175,5.344 6.241,5.292 6.306,5.238 L5.77,5.238 Z M7.302,5.238 C7.072,5.371 6.846,5.513 6.603,5.616 C6.366,5.781 6.156,5.978 5.964,6.191 L6.381,6.19 C6.653,5.999 6.914,5.775 7.211,5.644 C7.369,5.533 7.535,5.435 7.697,5.335 C7.762,5.302 7.828,5.27 7.894,5.238 L7.302,5.238 Z M14.539,5.238 C14.566,5.256 14.592,5.274 14.619,5.291 C14.989,5.461 15.252,5.846 15.59,6.09 C15.635,6.123 15.677,6.156 15.719,6.191 L16.275,6.19 C16.251,6.163 16.225,6.135 16.197,6.108 C16.029,6.004 15.921,5.806 15.736,5.724 C15.518,5.59 15.328,5.391 15.12,5.238 L14.539,5.238 Z M16.069,5.238 C16.205,5.372 16.338,5.512 16.485,5.633 C16.689,5.795 16.853,5.987 17.004,6.19 L17.285,6.19 C17.164,6.07 17.092,5.915 16.945,5.799 C16.793,5.596 16.611,5.415 16.422,5.239 L16.069,5.238 Z M10.814,6.19 C10.81,6.174 10.81,6.157 10.815,6.141 C10.841,6.108 10.888,6.112 10.92,6.112 C10.96,6.135 11.005,6.157 11.033,6.191 L11.242,6.19 L11.294,6.087 C11.334,6.065 11.398,6.076 11.409,6.13 C11.411,6.15 11.412,6.17 11.413,6.19 L11.648,6.19 C11.664,6.166 11.679,6.133 11.712,6.126 C11.752,6.123 11.782,6.154 11.799,6.19 L12.836,6.19 C12.717,6.158 12.594,6.133 12.485,6.076 C12.19,6.004 11.884,5.95 11.571,5.914 L10.682,5.918 C10.377,5.947 10.085,6.004 9.797,6.076 L9.452,6.123 C9.38,6.142 9.31,6.164 9.241,6.19 L10.814,6.19 L10.814,6.19 Z" id="Fill-35"></path>
            <path d="M9.222,3.333 C9.084,3.358 8.942,3.377 8.812,3.418 C8.596,3.461 8.405,3.569 8.204,3.648 C7.83,3.849 7.416,3.95 7.067,4.212 C6.822,4.368 6.603,4.587 6.358,4.749 C6.164,4.913 5.946,5.051 5.77,5.238 L6.306,5.238 C6.36,5.192 6.414,5.145 6.466,5.101 L7.15,4.565 C7.38,4.411 7.628,4.295 7.858,4.141 C8.046,4.047 8.254,4.008 8.445,3.917 C8.517,3.9 8.614,3.893 8.671,3.939 C8.834,4.159 9.071,4.36 9.358,4.295 C9.528,4.245 9.708,4.206 9.844,4.069 C9.887,4.026 10.041,3.891 10.103,3.876 C10.182,3.869 10.301,3.957 10.373,3.975 C10.607,3.957 10.686,3.995 10.898,3.901 C11.024,3.836 11.14,3.799 11.248,3.699 C11.316,3.699 11.44,3.811 11.495,3.84 C11.667,3.951 12.039,3.952 12.241,3.999 C12.251,4.002 12.251,4.014 12.251,4.024 C12.198,4.079 11.884,3.99 11.823,4.008 C11.28,3.915 10.73,4.033 10.207,4.13 C9.754,4.27 9.265,4.328 8.83,4.511 C8.495,4.626 8.185,4.806 7.865,4.964 C7.668,5.033 7.484,5.132 7.302,5.237 L7.894,5.238 C8.15,5.115 8.411,5 8.671,4.886 C8.819,4.792 8.999,4.759 9.143,4.655 C9.714,4.417 10.369,4.382 10.992,4.267 C11.14,4.292 11.251,4.227 11.392,4.234 C11.884,4.216 12.341,4.306 12.787,4.407 C12.956,4.468 13.122,4.54 13.291,4.601 C13.536,4.738 13.799,4.846 14.051,4.975 C14.223,5.037 14.382,5.133 14.539,5.238 L15.12,5.238 C15.031,5.173 14.938,5.116 14.838,5.076 C14.485,4.889 14.122,4.727 13.78,4.519 C13.571,4.421 13.356,4.349 13.133,4.285 C13.107,4.267 13.09,4.234 13.111,4.209 C13.193,4.151 13.299,4.144 13.382,4.087 C13.464,3.993 13.578,3.932 13.637,3.824 C13.945,3.954 14.241,4.112 14.539,4.27 C14.917,4.417 15.28,4.608 15.611,4.868 C15.782,4.965 15.928,5.098 16.069,5.238 L16.422,5.238 C16.289,5.116 16.151,4.996 16.018,4.875 C15.853,4.795 15.719,4.634 15.557,4.54 C15.359,4.476 15.197,4.328 15.01,4.242 C14.737,4.094 14.475,3.932 14.187,3.817 C14.102,3.763 14,3.745 13.914,3.684 C13.709,3.594 13.522,3.465 13.299,3.414 C13.184,3.378 13.057,3.45 12.953,3.389 C12.947,3.37 12.943,3.352 12.941,3.333 L12.691,3.333 C12.714,3.531 12.772,3.73 12.844,3.886 C12.891,3.922 12.944,3.965 13.006,3.937 C13.03,3.926 13.06,3.926 13.077,3.894 C13.063,3.789 13.013,3.699 12.973,3.602 C12.973,3.573 13.006,3.566 13.026,3.563 C13.139,3.555 13.206,3.645 13.311,3.652 C13.324,3.663 13.318,3.771 13.297,3.839 C13.293,3.904 13.189,3.915 13.152,3.965 C13.116,4.012 13.07,4.027 13.013,4.027 C12.804,4.009 12.667,3.836 12.552,3.671 L12.455,3.333 L11.867,3.333 C11.913,3.41 11.958,3.461 11.986,3.495 C12.066,3.59 12.22,3.788 12.058,3.741 C11.832,3.675 11.591,3.485 11.455,3.332 L11.221,3.333 C11.067,3.489 10.805,3.683 10.634,3.741 C10.475,3.794 10.657,3.556 10.737,3.461 C10.762,3.431 10.797,3.391 10.833,3.332 L10.415,3.333 C10.403,3.339 10.391,3.344 10.38,3.348 C10.323,3.37 10.268,3.347 10.218,3.333 L10.129,3.333 C10.109,3.344 10.091,3.366 10.076,3.404 C10.058,3.635 9.858,3.88 9.632,3.967 C9.506,3.985 9.344,4.042 9.226,3.963 C9.139,3.877 9.106,3.762 9.132,3.644 C9.149,3.51 9.293,3.492 9.395,3.467 C9.441,3.463 9.509,3.453 9.531,3.503 C9.57,3.665 9.222,3.676 9.409,3.831 C9.564,3.841 9.685,3.729 9.786,3.618 C9.839,3.542 9.877,3.442 9.897,3.333 L9.222,3.333" id="Fill-36"></path>
            <path d="M9.897,3.333 C9.929,3.152 9.91,2.947 9.825,2.783 C9.883,2.748 10.193,2.859 10.225,2.941 C10.225,3.046 10.208,3.172 10.312,3.223 C10.377,3.244 10.448,3.158 10.477,3.248 C10.482,3.293 10.449,3.317 10.415,3.333 L10.833,3.333 C10.912,3.205 10.996,2.993 10.991,2.622 C10.983,2.082 10.628,1.96 10.478,1.952 C10.327,1.944 10.221,1.94 10.276,1.875 C10.332,1.811 10.585,1.804 10.769,1.844 C10.952,1.883 11.346,2.228 11.346,2.228 C11.346,2.228 11.74,1.883 11.924,1.844 C12.106,1.804 12.446,1.78 12.502,1.844 C12.558,1.908 12.46,1.902 12.31,1.91 C12.159,1.918 11.709,2.082 11.701,2.622 C11.696,2.971 11.783,3.193 11.867,3.333 L12.455,3.333 L12.446,3.304 C12.376,3.235 12.271,3.285 12.185,3.257 C12.116,3.231 12.023,3.225 11.994,3.138 C11.983,3.084 11.967,3.007 12.028,2.985 L12.082,2.94 C12.089,2.908 12.163,2.908 12.206,2.912 C12.308,2.904 12.329,3.066 12.44,3.034 C12.566,3.044 12.598,2.838 12.691,2.791 C12.895,2.628 12.94,2.681 13.066,2.62 L13.073,2.634 L13.073,2.648 C12.894,2.771 12.702,2.877 12.684,3.101 C12.68,3.176 12.684,3.255 12.691,3.334 L12.941,3.333 C12.925,3.193 13.022,3.073 13.047,2.939 C13.162,2.745 13.413,2.871 13.571,2.759 C13.626,2.713 13.622,2.63 13.615,2.572 C13.507,2.435 13.377,2.324 13.197,2.346 C12.924,2.389 12.698,2.529 12.485,2.713 C12.362,2.813 12.251,2.669 12.132,2.648 C12.028,2.619 11.96,2.504 11.949,2.4 C11.949,2.285 12.071,2.212 12.153,2.148 C12.327,2 12.571,2.065 12.766,2.126 C12.838,2.115 12.896,2.036 12.91,1.968 C12.924,1.881 12.906,1.788 12.855,1.716 C12.777,1.669 12.694,1.63 12.601,1.616 C12.294,1.59 11.949,1.551 11.701,1.727 C11.575,1.788 11.488,1.957 11.33,1.943 C11.18,1.824 10.999,1.792 10.844,1.691 L10.596,1.587 C10.344,1.54 10.11,1.673 9.984,1.886 C9.952,2.004 9.873,2.177 9.984,2.288 C10.024,2.342 10.085,2.356 10.147,2.342 C10.236,2.332 10.258,2.23 10.308,2.177 C10.344,2.141 10.398,2.148 10.445,2.155 C10.531,2.177 10.622,2.256 10.654,2.342 C10.693,2.461 10.6,2.554 10.524,2.633 C10.456,2.695 10.344,2.687 10.254,2.673 C9.956,2.493 9.632,2.216 9.247,2.385 C9.085,2.464 8.88,2.626 8.88,2.82 C8.963,2.957 9.093,2.817 9.2,2.82 C9.376,2.803 9.545,2.835 9.657,2.964 C9.693,3.065 9.643,3.169 9.567,3.234 C9.46,3.284 9.342,3.311 9.222,3.333 L9.897,3.333 Z M10.218,3.333 C10.185,3.324 10.155,3.319 10.129,3.333 L10.218,3.333 Z M11.221,3.333 C11.294,3.259 11.343,3.194 11.346,3.156 C11.35,3.194 11.391,3.259 11.455,3.332 L11.221,3.333 Z M10.398,2.941 C10.459,2.852 10.567,2.762 10.682,2.794 L10.715,2.83 C10.726,2.895 10.728,3.009 10.677,3.059 C10.613,3.109 10.492,3.093 10.405,3.057 C10.377,3.028 10.387,2.974 10.398,2.941 L10.398,2.941 Z" id="Fill-37"></path>
            <path d="M21.126,10.239 C21.083,10.004 21.087,9.745 21.058,9.512 C20.954,8.673 20.777,7.868 20.464,7.119 C20.421,6.939 20.338,6.781 20.237,6.63 C20.187,6.461 20.079,6.321 19.993,6.169 L19.972,6.112 C19.569,5.576 19.327,4.972 18.839,4.479 C18.324,3.957 17.816,3.353 17.205,2.954 C16.813,2.605 16.393,2.335 15.961,2.083 C15.723,1.976 15.504,1.835 15.273,1.712 C15.039,1.604 14.795,1.519 14.551,1.425 C14.144,1.248 13.662,1.248 13.244,1.094 C12.963,1.061 12.676,1.054 12.399,1.015 C11.96,0.986 11.517,0.968 11.089,0.978 C10.762,0.917 10.409,0.946 10.107,1.04 C9.905,1.043 9.722,1.101 9.524,1.112 C9.19,1.101 8.92,1.245 8.607,1.281 C8.495,1.306 8.409,1.393 8.29,1.389 C8.042,1.504 7.769,1.544 7.502,1.616 C7.29,1.647 7.121,1.788 6.915,1.842 C6.783,2 6.57,1.976 6.43,2.119 C5.873,2.36 5.391,2.792 4.836,3.043 C4.387,3.429 3.851,3.712 3.509,4.212 C3.333,4.378 3.222,4.583 3.06,4.756 C2.916,4.925 2.865,5.126 2.732,5.299 C2.639,5.561 2.412,5.77 2.329,6.033 C2.25,6.12 2.254,6.242 2.164,6.325 C2.085,6.53 1.966,6.716 1.876,6.914 C1.84,7.084 1.728,7.216 1.696,7.382 C1.585,7.594 1.495,7.817 1.452,8.061 C1.348,8.206 1.326,8.382 1.286,8.555 C1.189,9.03 1.023,9.483 0.995,9.982 C0.894,10.364 0.981,10.753 0.955,11.152 C0.883,11.274 0.981,11.397 0.941,11.53 C1.016,11.742 0.998,11.99 1.027,12.22 L1.06,12.271 C1.11,12.476 1.135,12.688 1.174,12.9 C1.229,13.274 1.361,13.616 1.466,13.973 C1.646,14.372 1.74,14.807 1.912,15.21 C2.038,15.44 2.117,15.685 2.275,15.904 C2.481,16.325 2.775,16.714 3.01,17.127 C3.322,17.505 3.678,17.876 4.038,18.213 C4.524,18.714 5.067,19.077 5.628,19.404 C6.092,19.732 6.614,19.915 7.114,20.163 C7.423,20.272 7.726,20.394 8.038,20.49 C8.315,20.527 8.535,20.703 8.822,20.718 C9.035,20.718 9.196,20.84 9.405,20.84 C10.157,20.919 10.938,20.959 11.697,20.876 C12.068,20.836 12.448,20.814 12.809,20.754 C13.478,20.682 14.102,20.498 14.701,20.257 C15.018,20.059 15.371,19.937 15.715,19.807 C16.266,19.516 16.834,19.253 17.331,18.829 C17.611,18.652 17.856,18.408 18.13,18.2 C18.409,17.829 18.773,17.501 19.068,17.127 C19.09,17.041 19.144,16.965 19.194,16.886 C19.442,16.599 19.63,16.282 19.849,15.979 C19.95,15.76 20.137,15.577 20.173,15.329 C20.263,15.145 20.625,14.138 20.739,13.84 C20.833,13.393 20.975,12.987 21.022,12.522 C21.047,12.083 21.148,11.663 21.122,11.213 C21.101,10.89 21.145,10.566 21.126,10.239 Z M20.728,12.303 C20.691,12.389 20.724,12.486 20.699,12.576 C20.648,12.839 20.62,13.109 20.512,13.35 C20.35,13.979 20.148,14.591 19.893,15.185 C19.745,15.469 19.584,15.745 19.404,16.015 C19.174,16.386 18.904,16.742 18.645,17.094 C18.555,17.235 18.41,17.314 18.303,17.436 C18.151,17.756 17.811,17.954 17.555,18.188 C17.264,18.526 16.89,18.677 16.565,18.947 C16.199,19.256 15.75,19.378 15.361,19.63 C15.167,19.749 14.947,19.803 14.764,19.936 C14.602,19.979 14.465,20.077 14.299,20.108 C13.851,20.256 13.361,20.31 12.883,20.385 C12.616,20.461 12.353,20.551 12.055,20.551 C11.825,20.576 11.58,20.594 11.357,20.605 C11.174,20.619 10.986,20.68 10.803,20.623 C10.612,20.558 10.393,20.598 10.188,20.605 C9.774,20.619 9.36,20.583 8.997,20.451 C8.684,20.378 8.397,20.253 8.069,20.209 C7.699,20.04 7.293,19.957 6.925,19.774 C6.44,19.576 5.957,19.36 5.533,19.008 C5.282,18.799 4.983,18.673 4.738,18.432 C4.411,18.188 4.048,17.915 3.832,17.558 C3.673,17.447 3.572,17.274 3.48,17.12 C3.443,17.04 3.339,17.062 3.321,16.976 C3.145,16.655 2.922,16.356 2.738,16.04 C2.641,15.972 2.641,15.853 2.573,15.767 C2.364,15.397 2.156,15.03 2.033,14.627 C1.911,14.397 1.861,14.141 1.745,13.911 C1.685,13.688 1.627,13.465 1.602,13.227 C1.591,13.123 1.504,13.051 1.472,12.954 C1.372,12.515 1.357,12.058 1.292,11.605 C1.267,11.411 1.21,11.209 1.22,11.001 C1.192,10.724 1.195,10.44 1.253,10.17 C1.249,9.771 1.426,9.433 1.472,9.048 C1.577,8.648 1.648,8.235 1.843,7.872 C1.839,7.727 1.954,7.631 1.961,7.49 C2.145,7.12 2.238,6.709 2.454,6.35 C2.584,6.005 2.86,5.724 2.976,5.372 C3.091,5.105 3.31,4.889 3.465,4.642 C3.63,4.465 3.789,4.256 3.994,4.134 C4.112,4.044 4.22,3.933 4.317,3.829 C4.681,3.609 4.979,3.257 5.35,3.052 C5.522,2.983 5.648,2.8 5.825,2.746 C6.073,2.573 6.339,2.454 6.601,2.321 C6.99,2.174 7.328,1.904 7.746,1.832 C8.055,1.757 8.361,1.685 8.677,1.634 C8.868,1.577 9.08,1.555 9.267,1.487 C9.551,1.455 9.835,1.404 10.119,1.372 C10.519,1.3 10.943,1.292 11.364,1.274 C11.663,1.3 11.958,1.292 12.249,1.332 L12.778,1.422 C12.951,1.386 13.106,1.447 13.268,1.458 C13.781,1.512 14.26,1.659 14.71,1.872 C14.969,2.016 15.242,2.12 15.508,2.253 C16.063,2.447 16.548,2.814 17.019,3.213 C17.209,3.411 17.422,3.591 17.631,3.757 C18.044,4.16 18.44,4.562 18.825,4.976 C18.962,5.17 19.106,5.361 19.224,5.562 C19.44,5.865 19.671,6.173 19.821,6.508 C20.148,7.084 20.329,7.721 20.498,8.361 C20.817,9.188 20.814,10.134 20.832,11.062 C20.764,11.461 20.742,11.882 20.728,12.303 L20.728,12.303 Z" id="Fill-38"></path>
            <path d="M13.125,10.489 C13.158,10.553 13.097,10.551 13.107,10.62 C13.115,10.67 13.136,10.753 13.072,10.778 C12.949,10.803 12.985,10.604 12.855,10.658 L12.673,10.691 C12.659,10.914 12.667,11.215 12.634,11.431 C12.641,11.521 12.752,11.479 12.763,11.569 C12.763,11.616 12.762,11.676 12.713,11.679 C12.654,11.683 12.614,11.702 12.571,11.673 C12.46,11.706 12.316,11.724 12.201,11.67 C12.165,11.641 12.161,11.591 12.176,11.551 C12.222,11.487 12.323,11.501 12.327,11.415 C12.323,11.189 12.381,10.9 12.327,10.688 C12.287,10.63 12.174,10.637 12.135,10.652 C12.045,10.67 12.089,10.853 12.003,10.831 L11.956,10.771 L11.939,10.506 L11.967,10.481 C12.302,10.481 12.658,10.503 12.982,10.463 C13.028,10.467 13.09,10.449 13.125,10.489" id="Fill-39"></path>
            <path d="M16.269,10.536 C16.269,10.629 16.287,10.737 16.254,10.82 C16.216,10.849 16.161,10.824 16.113,10.824 C16.086,10.805 16.136,10.719 16.117,10.698 C16.082,10.637 16.021,10.586 15.952,10.59 C15.913,10.597 15.77,10.676 15.764,10.715 C15.77,10.974 16.19,10.922 16.297,11.122 C16.396,11.301 16.35,11.438 16.238,11.561 C16.095,11.697 15.821,11.697 15.652,11.615 C15.551,11.611 15.447,11.726 15.363,11.625 L15.46,11.474 C15.522,11.38 15.501,11.331 15.587,11.258 L15.62,11.262 C15.666,11.435 15.704,11.515 15.891,11.52 C16.015,11.523 16.095,11.499 16.112,11.438 C16.141,11.399 16.119,11.349 16.112,11.309 C15.99,11.136 15.608,11.16 15.522,10.962 C15.482,10.822 15.469,10.637 15.592,10.536 C15.742,10.435 16.068,10.388 16.24,10.485 L16.269,10.536" id="Fill-40"></path>
            <path d="M8.01,10.502 C8.056,10.584 8.038,10.707 8.027,10.801 C8.01,10.851 7.948,10.847 7.902,10.84 C7.823,10.815 7.869,10.718 7.787,10.707 C7.722,10.693 7.636,10.685 7.585,10.736 C7.553,10.768 7.543,10.883 7.55,10.926 C7.582,10.984 7.712,10.955 7.759,10.976 C7.835,11.048 7.808,11.045 7.787,11.149 C7.769,11.247 7.657,11.149 7.575,11.167 C7.524,11.228 7.539,11.442 7.571,11.504 C7.7,11.54 7.873,11.486 7.935,11.434 C7.997,11.381 8.012,11.3 8.078,11.279 C8.117,11.279 8.164,11.297 8.168,11.34 C8.125,11.441 8.153,11.597 8.049,11.665 C7.775,11.776 7.423,11.66 7.121,11.689 C7.067,11.671 7.074,11.621 7.082,11.578 C7.301,11.376 7.214,10.968 7.222,10.695 C7.214,10.623 7.098,10.562 7.137,10.494 L7.173,10.472 C7.364,10.457 7.625,10.499 7.815,10.473 C7.884,10.47 7.956,10.473 8.01,10.502" id="Fill-41"></path>
            <path d="M11.31,10.548 C11.317,10.587 11.317,10.627 11.296,10.659 C11.242,10.677 11.185,10.706 11.146,10.76 C11.17,10.972 11.151,11.201 11.147,11.406 C11.188,11.459 11.28,11.446 11.295,11.525 C11.324,11.593 11.31,11.649 11.26,11.681 C11.159,11.728 10.961,11.67 10.842,11.678 C10.774,11.713 10.685,11.692 10.614,11.664 C10.566,11.624 10.564,11.593 10.592,11.535 C10.628,11.445 10.75,11.499 10.783,11.402 C10.858,11.222 10.798,10.915 10.824,10.716 C10.798,10.634 10.695,10.703 10.641,10.634 C10.616,10.605 10.56,10.49 10.604,10.49 C10.816,10.49 11.026,10.458 11.253,10.483 C11.282,10.49 11.3,10.522 11.31,10.548" id="Fill-42"></path>
            <path d="M5.898,10.521 C5.905,10.567 5.876,10.569 5.83,10.583 C5.8,10.58 5.775,10.602 5.761,10.62 C5.775,10.763 5.822,10.949 5.916,11.06 C5.97,11.075 6.005,11.017 6.027,10.981 L6.314,10.567 C6.202,10.511 6.263,10.445 6.263,10.445 C6.381,10.427 6.575,10.417 6.666,10.445 C6.694,10.459 6.803,10.415 6.775,10.5 C6.751,10.575 6.661,10.557 6.611,10.627 C6.392,10.938 6.185,11.328 6.009,11.616 C5.951,11.612 5.875,11.63 5.857,11.569 L5.853,11.451 L5.484,10.652 C5.455,10.62 5.401,10.641 5.369,10.616 C5.322,10.576 5.33,10.564 5.34,10.506 C5.391,10.438 5.488,10.459 5.56,10.435 C5.678,10.449 5.848,10.391 5.898,10.521" id="Fill-43"></path>
            <path d="M14.838,11.442 C14.672,11.136 14.482,10.845 14.363,10.521 C14.342,10.478 14.303,10.427 14.252,10.427 C14.202,10.435 14.084,10.456 14.069,10.51 C14.016,10.866 13.801,11.154 13.627,11.459 C13.566,11.503 13.516,11.564 13.451,11.593 C13.426,11.618 13.438,11.643 13.458,11.665 C13.599,11.654 13.824,11.665 13.975,11.658 C13.992,11.65 14.024,11.64 14.018,11.611 C14.011,11.579 13.982,11.568 13.96,11.55 C13.942,11.532 13.953,11.505 13.96,11.488 C14.036,11.309 14.166,11.359 14.291,11.373 C14.375,11.402 14.51,11.341 14.529,11.496 C14.534,11.541 14.461,11.506 14.432,11.521 C14.396,11.539 14.366,11.575 14.377,11.622 C14.377,11.668 14.421,11.666 14.464,11.67 C14.622,11.649 14.76,11.651 14.943,11.644 C15.018,11.642 14.874,11.496 14.838,11.442 Z M14.358,11.207 C14.307,11.25 14.112,11.244 14.039,11.24 C13.947,11.218 14.127,10.996 14.102,10.936 C14.118,10.88 14.108,10.783 14.178,10.77 C14.238,10.77 14.229,10.872 14.247,10.936 C14.273,10.996 14.371,11.146 14.358,11.207 L14.358,11.207 Z" id="Fill-44"></path>
            <path d="M14.951,5.719 C14.926,5.644 14.895,5.65 14.787,5.646 C14.635,5.69 14.499,5.769 14.398,5.909 C14.226,6.035 14.056,6.182 13.861,6.258 C13.797,6.304 13.726,6.276 13.657,6.308 C13.65,6.33 13.657,6.351 13.668,6.366 C13.736,6.398 13.797,6.449 13.873,6.466 C13.955,6.498 13.992,6.643 14.1,6.563 C14.096,6.513 14.046,6.456 14.088,6.409 C14.275,6.351 14.353,6.445 14.49,6.552 C14.518,6.585 14.525,6.614 14.497,6.657 C14.437,6.671 14.367,6.697 14.315,6.655 C14.3,6.655 14.285,6.672 14.285,6.69 C14.289,6.791 14.466,6.901 14.523,6.959 C14.57,7.049 14.718,7.137 14.814,7.155 C14.843,7.144 14.868,7.112 14.864,7.08 C14.8,6.899 14.746,7.045 14.828,6.869 C14.857,6.815 14.926,6.023 14.959,5.972 C14.941,5.821 14.951,5.719 14.951,5.719 Z M14.583,6.322 C14.573,6.383 14.344,6.246 14.301,6.192 C14.278,6.17 14.454,6.047 14.461,6.026 C14.544,5.968 14.557,5.926 14.647,5.883 L14.661,5.898 C14.654,5.995 14.606,6.184 14.583,6.322 L14.583,6.322 Z" id="Fill-45"></path>
            <path d="M11.956,4.576 C11.949,4.695 11.932,4.817 11.913,4.936 C11.906,4.961 11.88,4.979 11.856,4.975 C11.797,4.969 11.716,4.968 11.731,4.715 C11.618,4.589 11.461,4.655 11.457,4.789 C11.443,5.174 11.385,5.23 11.424,5.493 C11.481,5.561 11.481,5.659 11.567,5.709 C11.586,5.745 11.557,5.785 11.522,5.792 C11.42,5.81 11.341,5.749 11.244,5.745 C11.121,5.734 10.995,5.77 10.884,5.731 C10.848,5.713 10.862,5.669 10.877,5.644 C11.129,5.479 11.075,5.151 11.097,4.878 C11.093,4.835 11.07,4.792 11.028,4.774 C10.817,4.685 10.859,4.842 10.762,4.864 C10.74,4.886 10.693,4.886 10.672,4.864 C10.6,4.814 10.647,4.724 10.647,4.655 C10.665,4.601 10.657,4.519 10.726,4.511 C10.999,4.479 11.291,4.537 11.56,4.493 C11.697,4.515 11.877,4.454 11.956,4.576" id="Fill-46"></path>
            <path d="M13.385,4.901 C13.449,4.923 13.513,4.958 13.557,5.013 C13.542,5.153 13.358,5.07 13.305,5.178 C13.223,5.44 12.918,5.742 13.138,6.03 C13.145,6.059 13.131,6.087 13.102,6.095 C12.99,6.099 12.822,5.952 12.729,5.901 C12.632,5.879 12.517,5.883 12.456,5.793 C12.466,5.685 12.606,5.714 12.676,5.653 C12.838,5.584 12.851,5.373 12.907,5.236 C12.926,5.135 13.001,5.042 12.978,4.934 C12.933,4.876 12.818,4.848 12.868,4.75 C12.914,4.667 13.008,4.743 13.076,4.736 C13.135,4.811 13.316,4.858 13.385,4.901" id="Fill-47"></path>
            <path d="M16.42,7.202 C16.553,7.328 16.613,7.494 16.7,7.644 C16.715,7.705 16.769,7.77 16.722,7.835 C16.675,7.9 16.6,7.911 16.523,7.911 C16.487,7.893 16.498,7.846 16.506,7.817 C16.565,7.62 16.481,7.508 16.322,7.497 C16.293,7.601 16.123,7.553 16.17,7.679 C16.206,7.729 16.272,7.796 16.254,7.864 C16.262,7.94 16.186,7.976 16.132,8.004 L16.085,8.001 C16.027,7.921 15.948,7.856 15.93,7.767 C15.916,7.749 15.887,7.734 15.865,7.752 C15.833,7.817 15.715,7.856 15.75,7.95 C15.837,8.033 15.83,8.159 15.937,8.227 C15.988,8.241 16.027,8.206 16.081,8.206 C16.156,8.238 16.275,8.191 16.326,8.263 C16.336,8.342 16.243,8.335 16.197,8.36 C16.077,8.404 15.937,8.465 15.811,8.407 C15.678,8.288 15.675,8.119 15.549,8.001 L15.541,7.957 C15.448,7.864 15.369,7.763 15.254,7.717 C15.222,7.698 15.228,7.651 15.24,7.626 C15.297,7.497 15.398,7.63 15.488,7.601 C15.675,7.504 15.869,7.435 16.038,7.299 C16.109,7.289 16.16,7.22 16.199,7.166 C16.19,7.102 16.164,7.036 16.186,6.972 C16.215,6.954 16.254,6.929 16.283,6.957 C16.358,7.025 16.369,7.123 16.42,7.202" id="Fill-48"></path>
            <path d="M5.771,7.575 C5.792,7.686 5.661,7.757 5.589,7.832 C5.535,7.936 5.514,8.131 5.579,8.242 C5.64,8.339 5.719,8.466 5.841,8.476 L6.083,8.451 C6.107,8.39 6.172,8.353 6.165,8.275 C6.148,8.078 5.967,8.3 5.92,8.203 C5.913,8.091 5.973,7.932 6.052,7.859 C6.17,7.838 6.28,7.915 6.377,7.987 C6.42,8.005 6.493,7.998 6.503,8.063 L6.503,8.131 C6.467,8.282 6.453,8.455 6.377,8.595 C6.277,8.721 6.175,8.763 6.01,8.829 C5.915,8.867 5.795,8.895 5.705,8.859 C5.572,8.733 5.345,8.669 5.309,8.464 C5.151,8.186 5.299,7.77 5.461,7.543 C5.547,7.496 5.72,7.428 5.771,7.575" id="Fill-49"></path>
            <path d="M7.934,15.199 C7.916,15.159 7.873,15.109 7.823,15.116 C7.596,15.213 7.395,15.364 7.153,15.433 C7.056,15.483 6.962,15.548 6.848,15.566 C6.75,15.599 6.668,15.548 6.574,15.544 C6.549,15.555 6.539,15.581 6.535,15.605 C6.689,15.721 6.819,15.893 6.952,16.029 C7.013,15.976 6.973,15.875 7.031,15.818 C7.1,15.789 7.171,15.832 7.24,15.85 C7.362,15.918 7.506,16.045 7.502,16.199 C7.491,16.231 7.405,16.216 7.377,16.223 C7.369,16.259 7.312,16.256 7.356,16.299 L7.585,16.433 C7.683,16.494 7.74,16.624 7.848,16.652 C7.891,16.645 7.88,16.587 7.876,16.552 C7.636,16.095 8.006,15.67 7.934,15.199 Z M7.518,15.86 C7.445,15.875 7.34,15.741 7.293,15.684 C7.271,15.662 7.264,15.63 7.275,15.597 C7.362,15.543 7.536,15.376 7.638,15.369 L7.652,15.388 C7.646,15.506 7.543,15.745 7.518,15.86 L7.518,15.86 Z" id="Fill-50"></path>
            <path d="M15.563,15.513 C15.377,15.465 15.48,15.55 15.295,15.498 C15.16,15.461 14.738,15.289 14.606,15.246 C14.522,15.214 14.421,15.131 14.332,15.207 C14.285,15.347 14.376,15.458 14.361,15.605 C14.419,15.81 14.518,16.176 14.447,16.248 C14.36,16.338 14.308,16.415 14.375,16.502 C14.44,16.523 14.465,16.466 14.512,16.436 C14.615,16.354 14.748,16.304 14.828,16.188 C14.814,16.12 14.724,16.167 14.69,16.113 C14.654,16.012 14.806,15.973 14.856,15.905 C14.939,15.865 14.982,15.753 15.083,15.753 C15.194,15.789 15.076,15.872 15.087,15.94 C15.094,15.951 15.108,15.973 15.127,15.969 C15.295,15.89 15.425,15.706 15.579,15.599 C15.587,15.57 15.587,15.534 15.563,15.513 Z M14.617,15.877 C14.549,15.809 14.504,15.554 14.516,15.46 C14.533,15.432 14.608,15.501 14.63,15.511 L14.856,15.612 C14.871,15.623 14.915,15.635 14.919,15.649 C14.847,15.736 14.729,15.909 14.617,15.877 L14.617,15.877 Z" id="Fill-51"></path>
            <path d="M6.57,13.67 L6.578,13.735 C6.506,13.936 6.399,14.329 6.385,14.552 C6.403,14.584 6.518,14.461 6.543,14.447 C6.669,14.396 6.752,14.257 6.881,14.221 C6.957,14.246 6.973,14.282 7.021,14.347 C7.06,14.429 7.164,14.505 7.128,14.605 C7.042,14.681 7.009,14.523 6.919,14.552 C6.743,14.587 6.603,14.706 6.448,14.8 C6.362,14.915 6.232,14.951 6.131,15.044 C6.085,15.022 5.995,15.052 5.992,14.976 C6.005,14.706 6.159,14.414 6.134,14.133 C6.105,14.094 5.834,14.333 5.801,14.351 C5.661,14.448 5.729,14.44 5.685,14.605 C5.647,14.62 5.607,14.577 5.578,14.552 C5.542,14.476 5.528,14.39 5.484,14.318 C5.445,14.278 5.391,14.242 5.409,14.178 C5.592,14.195 5.61,14.19 5.768,14.129 C5.886,14.043 6.345,13.726 6.348,13.676 C6.356,13.632 6.29,13.598 6.315,13.555 C6.348,13.512 6.409,13.522 6.448,13.544 C6.502,13.569 6.549,13.616 6.57,13.67" id="Fill-52"></path>
            <path d="M16.021,13.81 C16.053,13.839 16.089,13.878 16.06,13.918 C15.927,13.965 15.775,13.965 15.657,14.055 C15.61,14.098 15.534,14.141 15.527,14.21 C15.57,14.292 15.678,14.387 15.761,14.38 C15.872,14.333 15.721,14.167 15.879,14.167 C15.994,14.171 16.033,14.186 16.09,14.277 C16.098,14.295 16.115,14.323 16.098,14.345 C16.051,14.385 15.961,14.342 15.94,14.424 C15.936,14.464 15.944,14.551 15.988,14.58 C16.027,14.638 16.1,14.652 16.164,14.638 C16.246,14.616 16.279,14.526 16.326,14.469 C16.383,14.35 16.25,14.274 16.186,14.191 C16.182,14.145 16.211,14.102 16.254,14.083 C16.412,14.116 16.508,14.232 16.651,14.294 C16.662,14.341 16.637,14.384 16.615,14.42 C16.397,14.683 16.252,14.921 15.993,15.155 C15.965,15.173 15.937,15.214 15.905,15.196 C15.837,15.131 15.992,15.019 15.949,14.959 C15.856,14.833 15.606,14.575 15.404,14.496 C15.289,14.464 15.27,14.514 15.201,14.596 C15.162,14.629 15.113,14.642 15.07,14.625 C15.023,14.603 15.025,14.558 15.039,14.519 C15.083,14.403 15.224,14.328 15.285,14.224 C15.4,14.022 15.536,13.902 15.677,13.707 C15.81,13.621 15.901,13.777 16.021,13.81" id="Fill-53"></path>
            <path d="M8.91,15.752 C9.208,15.853 9.5,15.964 9.805,16.051 C9.848,16.069 9.892,16.101 9.917,16.137 C9.935,16.245 9.848,16.321 9.823,16.417 C9.794,16.443 9.755,16.439 9.726,16.417 C9.647,16.335 9.661,16.134 9.492,16.173 C9.373,16.206 9.363,16.376 9.309,16.466 C9.273,16.61 9.165,16.732 9.168,16.887 C9.205,16.973 9.262,17.008 9.327,17.072 C9.341,17.101 9.316,17.133 9.287,17.145 C9.197,17.151 9.14,17.08 9.057,17.065 C8.91,17.011 8.733,17.018 8.6,16.929 C8.582,16.911 8.6,16.889 8.6,16.871 C8.661,16.842 8.73,16.835 8.791,16.803 C8.928,16.641 8.938,16.429 9.035,16.248 C9.053,16.18 9.125,16.126 9.104,16.051 C9.053,16.008 8.996,15.989 8.931,15.978 C8.841,16.036 8.791,16.137 8.708,16.194 C8.679,16.187 8.64,16.184 8.629,16.148 C8.622,15.989 8.683,15.86 8.755,15.734 C8.809,15.72 8.862,15.738 8.91,15.752" id="Fill-54"></path>
            <path d="M11.35,16.255 C11.338,16.296 11.363,16.332 11.398,16.353 C11.432,16.375 11.492,16.381 11.486,16.435 C11.503,16.69 11.504,16.92 11.356,17.124 C11.286,17.201 11.188,17.216 11.093,17.18 C10.858,17.04 11.022,16.798 10.969,16.576 C10.978,16.493 10.931,16.384 11.01,16.323 C11.033,16.304 11.074,16.301 11.081,16.266 C11.072,16.246 11.072,16.218 11.044,16.207 C10.908,16.186 10.736,16.244 10.599,16.205 C10.566,16.198 10.528,16.215 10.518,16.25 C10.492,16.287 10.528,16.32 10.56,16.331 C10.615,16.329 10.642,16.379 10.663,16.421 C10.747,16.727 10.589,17.041 10.752,17.323 C10.894,17.446 11.213,17.454 11.398,17.415 C11.782,17.228 11.585,16.769 11.722,16.433 C11.769,16.397 11.853,16.408 11.872,16.374 C11.894,16.337 11.917,16.296 11.89,16.25 C11.761,16.204 11.594,16.232 11.464,16.229 C11.42,16.235 11.372,16.213 11.35,16.255" id="Fill-55"></path>
            <path d="M14,16.509 C13.965,16.476 13.917,16.458 13.867,16.473 C13.799,16.49 13.787,16.562 13.77,16.616 C13.744,16.692 13.658,16.674 13.59,16.685 C13.532,16.666 13.344,16.55 13.379,16.494 C13.454,16.378 13.532,16.199 13.406,16.045 C13.287,15.793 12.956,15.853 12.763,15.933 C12.614,16.033 12.439,16.066 12.291,16.159 C12.276,16.199 12.297,16.242 12.325,16.27 C12.38,16.321 12.456,16.25 12.518,16.253 C12.597,16.325 12.626,16.422 12.676,16.509 C12.733,16.663 12.798,16.815 12.835,16.98 C12.849,17.073 12.759,17.174 12.842,17.239 C12.932,17.192 13.035,17.171 13.133,17.142 C13.236,17.081 13.056,16.848 13.073,16.766 C13.088,16.737 13.116,16.723 13.148,16.73 C13.217,16.776 13.453,16.897 13.533,16.915 C13.773,16.915 13.917,16.918 14.024,16.678 C14.024,16.62 14.057,16.552 14,16.509 Z M13.154,16.447 C13.119,16.483 13.045,16.521 12.998,16.502 C12.948,16.459 12.772,16.138 12.863,16.092 C12.982,16.066 13.123,16.088 13.188,16.214 C13.214,16.293 13.184,16.386 13.154,16.447 L13.154,16.447 Z" id="Fill-56"></path>
            <path d="M7.797,2.018 C7.801,2.184 7.911,2.271 7.86,2.418 C7.824,2.461 7.833,2.476 7.775,2.476 C7.75,2.465 7.71,2.482 7.699,2.447 C7.689,2.375 7.613,2.299 7.548,2.273 C7.472,2.269 7.225,2.375 7.175,2.464 C7.15,2.522 7.161,2.587 7.204,2.637 C7.412,2.85 7.683,2.644 7.909,2.619 C8.002,2.63 8.085,2.684 8.164,2.745 C8.301,2.896 8.38,3.108 8.311,3.31 C8.201,3.522 8.002,3.767 7.732,3.742 C7.636,3.771 7.56,3.648 7.484,3.724 C7.481,3.781 7.499,3.849 7.438,3.871 C7.391,3.882 7.337,3.878 7.301,3.842 C7.243,3.759 7.315,3.67 7.293,3.58 C7.279,3.482 7.198,3.423 7.321,3.352 C7.468,3.333 7.612,3.542 7.737,3.5 C7.854,3.46 7.917,3.431 7.963,3.303 C7.983,3.246 7.995,3.177 7.956,3.123 C7.919,3.079 7.869,3.051 7.808,3.051 C7.657,3.065 7.564,3.216 7.391,3.187 C7.229,3.169 7.074,3.115 6.977,2.961 C6.898,2.832 6.815,2.673 6.877,2.511 C6.926,2.367 7.052,2.241 7.193,2.181 C7.293,2.144 7.425,2.107 7.529,2.125 C7.648,2.1 7.599,1.903 7.765,1.978 L7.797,2.018" id="Fill-57"></path>
            <path d="M15.733,2.608 C15.791,2.666 15.795,2.785 15.899,2.795 C15.953,2.799 16.032,2.777 16.047,2.85 C15.996,2.964 15.863,3.004 15.781,3.09 L15.657,3.188 C15.629,3.199 15.603,3.17 15.597,3.149 C15.527,3.001 15.668,2.982 15.579,2.85 C15.535,2.788 15.489,2.705 15.41,2.691 C15.356,2.687 15.31,2.73 15.284,2.773 C15.187,2.957 15.33,3.094 15.374,3.249 C15.445,3.335 15.475,3.44 15.503,3.544 C15.546,3.699 15.485,3.838 15.374,3.936 C15.208,4.062 15.039,4.094 14.827,4.029 C14.727,3.972 14.611,3.936 14.529,3.842 L14.414,3.659 C14.345,3.641 14.256,3.655 14.205,3.594 C14.184,3.555 14.212,3.511 14.234,3.478 L14.539,3.141 C14.56,3.119 14.607,3.123 14.633,3.137 C14.669,3.155 14.672,3.198 14.684,3.23 C14.676,3.331 14.565,3.389 14.583,3.5 C14.568,3.634 14.708,3.709 14.799,3.771 C14.859,3.799 14.957,3.803 15.018,3.774 C15.098,3.727 15.137,3.637 15.104,3.551 C15.094,3.382 14.889,3.295 14.863,3.137 C14.838,2.993 14.784,2.81 14.889,2.687 C15.029,2.478 15.28,2.435 15.511,2.464 C15.597,2.486 15.676,2.537 15.733,2.608" id="Fill-58"></path>
            <path d="M5.819,3.087 C5.84,3.22 5.707,3.284 5.808,3.402 C5.923,3.607 6.173,3.776 6.268,3.985 C6.329,4.064 6.372,4.161 6.469,4.204 C6.573,4.265 6.694,4.1 6.737,4.248 C6.694,4.355 6.533,4.411 6.458,4.486 C6.346,4.565 6.217,4.673 6.152,4.792 C6.124,4.817 6.077,4.839 6.044,4.81 C5.957,4.684 6.131,4.534 6.066,4.394 C6.034,4.297 5.933,4.225 5.882,4.135 C5.75,3.912 5.548,3.696 5.322,3.57 C5.242,3.53 5.132,3.644 5.085,3.555 C5.088,3.486 5.157,3.432 5.211,3.397 C5.366,3.277 5.539,3.198 5.682,3.051 C5.726,3.029 5.804,3.029 5.819,3.087" id="Fill-59"></path>
            <path d="M16.578,3.686 C16.678,3.773 16.682,3.895 16.664,4.025 C16.647,4.155 16.521,4.23 16.401,4.259 C16.275,4.259 16.121,4.259 16.064,4.122 C16.021,4.018 16.053,3.888 16.121,3.798 C16.179,3.737 16.236,3.665 16.312,3.636 C16.409,3.633 16.502,3.636 16.578,3.686" id="Fill-60"></path>
            <path d="M4.551,4.225 C4.577,4.264 4.562,4.318 4.547,4.358 C4.508,4.401 4.465,4.452 4.404,4.426 C4.36,4.408 4.29,4.32 4.246,4.367 C4.214,4.396 4.116,4.592 4.141,4.625 C4.188,4.661 4.29,4.713 4.351,4.709 C4.542,4.684 4.801,4.457 5.021,4.529 C5.139,4.529 5.503,4.598 5.503,4.973 C5.502,5.085 5.509,5.209 5.456,5.31 C5.373,5.464 5.236,5.655 5.049,5.691 C5.013,5.684 4.966,5.68 4.93,5.695 C4.88,5.749 4.909,5.846 4.836,5.882 C4.7,5.921 4.675,5.752 4.614,5.677 C4.571,5.576 4.542,5.525 4.523,5.413 C4.527,5.388 4.553,5.385 4.574,5.377 C4.809,5.284 4.78,5.626 5.143,5.356 C5.204,5.311 5.214,5.234 5.214,5.155 C5.161,5.069 5.201,4.91 4.966,4.954 C4.733,4.998 4.56,5.105 4.344,5.148 C4.182,5.159 4.042,5.076 3.934,4.957 C3.865,4.82 3.833,4.623 3.912,4.479 C3.984,4.385 4.159,4.025 4.242,4.075 C4.364,4.115 4.461,4.142 4.551,4.225" id="Fill-61"></path>
            <path d="M3.373,5.381 C3.416,5.464 3.326,5.525 3.344,5.616 C3.38,5.788 3.527,5.94 3.696,5.983 C3.977,6.163 4.199,6.356 4.494,6.504 C4.52,6.522 4.52,6.558 4.512,6.583 C4.382,6.727 4.214,6.684 4.038,6.687 C3.754,6.691 3.451,6.702 3.196,6.796 C3.282,6.868 3.347,6.972 3.47,6.994 C3.57,7.116 3.711,7.174 3.861,7.144 C3.93,7.141 3.948,7.022 4.023,7.055 C4.07,7.076 4.085,7.13 4.07,7.177 C3.934,7.393 3.861,7.634 3.732,7.853 C3.714,7.893 3.667,7.918 3.635,7.882 C3.563,7.817 3.639,7.734 3.617,7.651 C3.621,7.476 3.444,7.389 3.326,7.295 C3.117,7.155 2.883,7.037 2.621,7.051 C2.531,7.044 2.491,7.177 2.394,7.141 C2.326,7.098 2.387,7.015 2.405,6.961 C2.491,6.806 2.56,6.679 2.752,6.639 C3.031,6.56 3.36,6.49 3.671,6.476 C3.725,6.473 3.757,6.443 3.79,6.404 C3.674,6.295 3.542,6.202 3.405,6.123 C3.318,6.069 3.264,6.028 3.163,6.01 C3.109,6.039 3.063,6.103 2.994,6.064 C2.962,6.039 2.915,6.017 2.908,5.974 C2.9,5.923 2.959,5.902 2.969,5.859 C3.066,5.682 3.088,5.475 3.261,5.346 C3.304,5.342 3.34,5.353 3.373,5.381" id="Fill-62"></path>
            <path d="M2.232,8.198 C2.29,8.281 2.466,8.224 2.438,8.36 C2.387,8.433 2.204,8.366 2.132,8.392 C2.035,8.456 1.981,8.565 1.991,8.706 C1.995,8.76 2.022,8.85 2.068,8.871 C2.151,8.89 2.326,8.971 2.383,8.874 C2.387,8.806 2.375,8.59 2.403,8.568 C2.476,8.55 2.483,8.591 2.552,8.587 C2.635,8.58 2.746,8.586 2.727,8.619 C2.641,8.772 2.641,8.861 2.558,8.943 C2.558,8.965 2.576,8.972 2.59,8.976 C2.763,8.961 2.942,9.074 3.101,9.092 C3.133,8.98 3.136,8.781 3.161,8.663 C3.182,8.479 2.865,8.407 2.93,8.224 C2.962,8.17 3.023,8.173 3.074,8.187 C3.2,8.242 3.299,8.246 3.386,8.354 C3.508,8.52 3.412,8.835 3.344,8.993 C3.25,9.188 3.232,9.756 3.2,9.799 C3.171,9.821 3.124,9.828 3.092,9.807 C2.952,9.702 3.073,9.431 2.753,9.411 C2.481,9.394 2.228,9.285 1.955,9.224 C1.793,9.209 1.833,9.479 1.664,9.407 C1.556,9.26 1.814,8.406 1.878,8.179 C1.903,8.147 1.905,8.148 1.94,8.137 C2.052,8.123 2.131,8.191 2.232,8.198" id="Fill-63"></path>
            <path d="M1.678,10.674 C1.916,10.739 2.2,10.695 2.448,10.727 C2.6,10.727 2.786,10.763 2.876,10.627 C2.891,10.591 2.905,10.523 2.952,10.512 C2.991,10.508 3.049,10.494 3.081,10.526 L3.099,10.562 C3.085,10.789 3.067,11.004 3.117,11.22 C3.121,11.282 3.124,11.346 3.063,11.375 C2.919,11.404 2.859,11.164 2.726,11.138 C2.481,11.07 2.193,11.102 1.924,11.095 C1.758,11.084 1.664,11.206 1.559,11.329 C1.534,11.346 1.427,11.337 1.422,11.25 C1.412,11.046 1.358,10.915 1.406,10.689 C1.421,10.62 1.416,10.516 1.498,10.49 C1.599,10.494 1.588,10.637 1.678,10.674" id="Fill-64"></path>
            <path d="M3.061,12.083 C3.115,12.095 3.198,12.073 3.22,12.138 C3.194,12.26 3.252,12.324 3.267,12.432 C3.316,12.652 3.519,13.253 3.519,13.335 C3.504,13.375 3.468,13.418 3.428,13.433 C3.234,13.447 3.342,13.261 3.14,13.304 C2.932,13.362 2.454,13.502 2.224,13.505 C2.188,13.516 2.137,13.523 2.134,13.563 C2.13,13.613 2.148,13.699 2.083,13.717 C2.008,13.721 1.964,13.642 1.925,13.591 C1.846,13.39 1.658,13.209 1.727,12.972 C1.749,12.925 1.795,12.925 1.838,12.922 C1.954,12.929 1.935,13.112 2.058,13.09 C2.18,13.058 2.385,13.044 2.519,13.03 C2.677,12.929 3.119,13.051 3.088,12.829 C2.998,12.194 2.802,12.343 2.598,12.12 C2.537,12.053 2.666,12.062 2.698,12.033 C2.835,12.012 2.94,12.069 3.061,12.083" id="Fill-65"></path>
            <path d="M19.169,12.384 C19.407,12.55 19.712,12.545 19.999,12.596 C20.108,12.606 20.228,12.72 20.323,12.627 C20.356,12.573 20.375,12.504 20.436,12.469 C20.489,12.461 20.543,12.498 20.554,12.548 C20.532,12.692 20.45,12.807 20.428,12.943 C20.331,13.134 20.267,13.343 20.255,13.569 C20.237,13.613 20.212,13.67 20.158,13.685 C20.011,13.699 19.886,13.666 19.756,13.642 C19.708,13.62 19.652,13.519 19.706,13.519 C20.039,13.516 20.201,13.079 20.175,13.026 C20.149,12.976 19.857,12.965 19.743,12.928 C19.659,12.9 19.793,13.177 19.649,13.227 C19.526,13.248 19.599,13.207 19.477,13.217 C19.437,13.2 19.401,13.167 19.387,13.124 C19.372,13.074 19.383,13.016 19.426,12.98 C19.448,12.966 19.473,12.952 19.479,12.923 C19.494,12.87 19.426,12.847 19.376,12.833 C19.239,12.819 19.023,12.639 18.94,12.764 C18.901,12.934 18.809,13.151 19.054,13.408 C19.071,13.426 19.048,13.461 19.019,13.473 L18.942,13.461 L18.65,13.26 C18.601,13.195 18.629,13.098 18.645,13.03 C18.694,12.825 18.763,12.634 18.831,12.436 C18.867,12.353 18.889,12.26 18.968,12.203 C19.112,12.195 19.058,12.341 19.169,12.384" id="Fill-66"></path>
            <path d="M18.46,14.077 L18.468,14.189 C18.647,14.375 18.86,14.523 19.09,14.605 C19.256,14.742 19.442,14.836 19.63,14.93 C19.681,14.962 19.72,15.016 19.694,15.08 C19.519,15.282 19.184,15.202 18.939,15.202 C18.91,15.192 18.785,15.163 18.756,15.17 C18.72,15.214 18.816,15.347 18.83,15.386 C18.924,15.573 19.032,15.703 19.115,15.894 C19.122,15.936 19.09,15.961 19.072,15.99 C18.893,16.009 18.76,15.864 18.601,15.804 C18.503,15.766 18.453,15.695 18.363,15.663 C18.184,15.602 17.944,15.364 17.781,15.49 C17.721,15.537 17.666,15.498 17.603,15.454 C17.611,15.314 17.701,15.188 17.766,15.062 C17.834,15.026 17.806,14.872 17.917,14.918 C18.032,14.969 17.897,15.13 18.026,15.148 C18.146,15.202 18.617,15.424 18.712,15.535 C18.758,15.557 18.32,14.969 18.316,14.828 C18.32,14.774 19.118,14.883 19.126,14.843 C19.115,14.782 18.658,14.593 18.614,14.568 C18.492,14.564 18.361,14.374 18.198,14.638 C18.175,14.675 18.094,14.645 18.075,14.595 C18.086,14.54 18.133,14.501 18.147,14.447 C18.231,14.31 18.19,14.105 18.359,14.016 C18.402,14.012 18.436,14.041 18.46,14.077" id="Fill-67"></path>
            <path d="M17.309,16.152 C17.363,16.303 17.567,16.343 17.686,16.466 C17.884,16.595 18,16.902 18.256,16.902 C18.35,16.899 18.464,16.843 18.514,16.925 C18.557,17.058 18.398,17.066 18.33,17.126 C18.236,17.246 18.114,17.35 18.024,17.457 C17.996,17.476 17.96,17.468 17.934,17.451 C17.892,17.389 17.989,17.303 17.953,17.238 C17.899,17.141 17.669,16.969 17.565,16.915 C17.393,16.786 17.326,16.63 17.121,16.547 C17.003,16.515 16.894,16.686 16.801,16.553 C16.797,16.384 16.981,16.307 17.046,16.163 C17.121,16.102 17.154,16.004 17.236,15.954 C17.342,15.965 17.279,16.091 17.309,16.152" id="Fill-68"></path>
            <path d="M5.452,16.607 C5.463,16.784 5.61,16.914 5.765,16.967 C5.78,17.006 5.751,17.046 5.714,17.057 C5.635,17.093 5.539,17.086 5.449,17.097 C5.366,17.172 5.359,17.144 5.255,17.168 C5.215,17.183 5.168,17.168 5.154,17.128 L5.154,17.086 C5.222,17.032 5.267,17.003 5.293,16.91 C5.303,16.754 5.161,16.625 5.031,16.543 C4.966,16.521 4.911,16.53 4.846,16.561 C4.763,16.627 4.814,16.71 4.838,16.807 C4.892,16.947 4.902,17.06 4.916,17.215 C4.916,17.406 4.88,17.579 4.74,17.708 C4.625,17.773 4.506,17.845 4.359,17.802 C4.232,17.805 4.154,17.687 4.064,17.611 C3.981,17.478 3.887,17.356 3.833,17.215 C3.837,17.125 3.937,17.1 3.995,17.057 L4.218,17 C4.327,17.082 4.161,17.136 4.154,17.215 C4.143,17.331 4.186,17.427 4.283,17.496 C4.369,17.525 4.452,17.51 4.528,17.467 C4.592,17.42 4.557,17.341 4.56,17.273 C4.528,17.01 4.348,16.78 4.42,16.499 C4.449,16.402 4.499,16.302 4.596,16.244 C4.852,16.15 5.125,16.255 5.319,16.424 C5.384,16.477 5.423,16.543 5.452,16.607" id="Fill-69"></path>
            <path d="M14.678,18.207 C14.656,18.282 14.522,18.302 14.584,18.392 C14.645,18.528 14.631,18.686 14.738,18.806 C14.793,18.953 14.851,19.244 14.994,19.345 C15.073,19.435 15.168,19.325 15.275,19.346 C15.315,19.375 15.337,19.422 15.333,19.472 C15.301,19.587 15.164,19.548 15.081,19.595 C14.836,19.685 14.539,19.804 14.303,19.908 C14.234,19.933 14.227,20.055 14.133,20.008 C14.028,19.908 14.033,19.746 13.942,19.631 C13.935,19.599 13.932,19.552 13.968,19.534 C14.028,19.512 14.057,19.577 14.107,19.588 C14.18,19.595 14.185,19.697 14.266,19.665 C14.319,19.6 14.541,19.527 14.541,19.527 L14.429,19.188 C14.397,19.157 14.354,19.146 14.31,19.157 C14.238,19.21 14.271,19.311 14.199,19.357 C14.155,19.365 14.131,19.315 14.116,19.286 C14.055,19.17 14.036,19.122 14.055,18.985 C14.13,18.898 14.217,19.017 14.307,18.995 C14.346,18.966 14.324,18.913 14.311,18.876 C14.191,18.787 14.228,18.452 14.005,18.545 C13.914,18.581 13.762,18.621 13.733,18.732 C13.697,18.796 13.709,18.905 13.619,18.922 C13.582,18.929 13.543,18.918 13.532,18.883 C13.518,18.811 13.56,18.764 13.565,18.7 C13.565,18.634 13.5,18.527 13.587,18.494 C13.816,18.397 14.075,18.361 14.305,18.264 C14.389,18.217 14.555,18.097 14.652,18.14 L14.678,18.207" id="Fill-70"></path>
            <path d="M20.335,8.429 C20.307,8.393 20.271,8.342 20.22,8.342 C20.068,8.4 19.932,8.313 19.776,8.317 C19.72,8.299 19.144,8.277 18.929,8.177 C18.733,8.086 18.688,7.929 18.688,7.929 C18.669,7.864 18.554,7.826 18.532,7.889 C18.508,7.961 18.522,8.089 18.565,8.183 C18.63,8.321 18.645,8.418 18.698,8.544 C18.709,8.587 18.751,8.602 18.788,8.591 C18.831,8.587 18.818,8.428 18.808,8.388 C18.825,8.353 18.91,8.414 18.946,8.403 C19.022,8.396 19.039,8.42 19.094,8.463 C19.137,8.564 19.158,8.727 19.184,8.827 C19.186,8.906 19.216,8.981 19.208,9.061 C19.19,9.101 19.085,9.176 19.038,9.165 C18.958,9.147 18.95,9.022 18.867,9.022 C18.817,9.037 18.827,9.094 18.823,9.138 C18.863,9.231 18.849,9.627 18.893,9.731 C18.913,9.771 18.942,9.832 19,9.807 C19.173,9.695 19.001,9.685 19.165,9.548 C19.338,9.403 19.969,8.854 20.091,8.782 C20.148,8.754 20.263,8.623 20.31,8.573 C20.338,8.533 20.353,8.476 20.335,8.429 Z M19.374,8.924 C19.335,8.928 19.327,8.881 19.314,8.856 L19.259,8.472 C19.36,8.4 19.728,8.519 19.876,8.516 C19.996,8.512 19.468,8.852 19.374,8.924 L19.374,8.924 Z" id="Fill-71"></path>
            <path d="M18.149,4.528 C18.139,4.467 18.064,4.463 18.01,4.459 C17.621,4.567 17.275,4.78 16.891,4.902 C16.772,4.902 16.647,4.923 16.546,4.866 C16.498,4.859 16.434,4.819 16.391,4.866 C16.376,4.916 16.395,4.963 16.42,5.002 C16.57,5.096 16.666,5.349 16.838,5.349 C16.91,5.349 16.812,5.235 16.944,5.172 C17.122,5.087 17.275,5.323 17.369,5.456 C17.387,5.514 17.373,5.579 17.344,5.628 C17.322,5.672 17.266,5.636 17.215,5.629 C17.168,5.633 17.131,5.579 17.1,5.633 C17.092,5.644 17.089,5.715 17.096,5.722 C17.226,5.784 17.309,5.917 17.391,6.028 C17.441,6.075 17.486,6.196 17.541,6.158 C17.643,6.086 17.576,6.028 17.589,5.953 C17.616,5.784 17.768,5.56 17.842,5.319 C17.904,5.064 18.109,4.79 18.149,4.528 Z M17.485,5.243 C17.381,5.239 17.283,5.109 17.235,5.034 C17.289,4.961 17.578,4.819 17.653,4.78 C17.735,4.754 17.551,5.199 17.485,5.243 L17.485,5.243 Z" id="Fill-72"></path>
            <path d="M16.787,18.462 C16.708,18.16 16.618,17.861 16.568,17.548 C16.554,17.422 16.522,17.282 16.543,17.156 C16.586,17.073 16.666,17.005 16.676,16.908 C16.662,16.872 16.618,16.851 16.575,16.858 C16.482,16.958 16.367,17.02 16.248,17.073 C16.193,17.167 16.136,17.118 16.101,17.226 C16.121,17.284 16.193,17.276 16.252,17.284 C16.309,17.294 16.283,17.359 16.291,17.398 C16.208,17.557 16.039,17.648 15.895,17.727 C15.848,17.734 15.811,17.699 15.791,17.663 C15.715,17.576 15.766,17.562 15.756,17.473 C15.744,17.448 15.715,17.44 15.688,17.444 C15.55,17.566 15.374,17.624 15.244,17.761 C15.212,17.792 15.15,17.803 15.158,17.861 C15.176,17.908 15.19,17.962 15.237,17.995 C15.277,18.013 15.326,18.014 15.363,17.995 C15.647,17.848 15.824,18.254 16.068,18.384 C16.248,18.431 16.488,18.733 16.605,18.72 C16.699,18.709 16.766,18.674 16.831,18.609 C16.859,18.552 16.805,18.509 16.787,18.462 Z M16.484,18.277 C16.412,18.263 16.16,17.954 16.102,17.921 C16.084,17.908 16.059,17.915 16.049,17.889 L16.052,17.853 C16.117,17.792 16.35,17.552 16.406,17.735 C16.432,17.804 16.521,18.155 16.535,18.227 C16.527,18.252 16.51,18.273 16.484,18.277 L16.484,18.277 Z" id="Fill-73"></path>
            <path d="M4.466,15.415 C4.387,15.253 4.286,14.941 4.196,14.947 C4.06,14.956 4.193,15.17 4.078,15.238 C4.027,15.27 3.955,15.285 3.894,15.264 C3.761,15.199 3.764,15.143 3.678,14.965 C3.641,14.887 3.545,14.8 3.621,14.71 C3.678,14.66 3.704,14.552 3.797,14.552 C3.836,14.559 3.836,14.602 3.851,14.631 C3.873,14.674 3.894,14.746 3.962,14.721 C3.988,14.713 4.023,14.692 4.023,14.66 C4.002,14.49 3.869,14.372 3.818,14.213 C3.747,14.127 3.772,13.955 3.624,13.943 C3.534,13.983 3.596,14.105 3.57,14.185 C3.459,14.329 3.373,14.483 3.235,14.62 C3.11,14.764 3.005,14.933 2.858,15.062 L2.714,15.3 C2.704,15.353 2.631,15.464 2.707,15.473 C3.144,15.519 3.499,15.498 3.894,15.49 C4.052,15.494 4.254,15.447 4.369,15.581 C4.416,15.613 4.426,15.678 4.477,15.695 C4.52,15.71 4.56,15.713 4.592,15.674 C4.6,15.573 4.513,15.498 4.466,15.415 Z M3.502,15.269 C3.39,15.265 3.217,15.276 3.106,15.279 C3.08,15.265 3.378,14.988 3.386,14.966 C3.464,14.883 3.516,15.057 3.516,15.057 C3.516,15.057 3.554,15.207 3.603,15.235 C3.615,15.26 3.526,15.272 3.502,15.269 L3.502,15.269 Z" id="Fill-74"></path>
            <path d="M18.037,7.168 C17.951,7.01 17.913,6.886 17.916,6.79 C17.92,6.695 18.002,6.588 18.014,6.505 C18.061,6.389 18.173,6.294 18.27,6.212 C18.367,6.13 18.483,6.069 18.619,6.03 C18.744,6.023 18.866,5.966 18.968,5.972 C19.069,5.979 19.163,6.004 19.248,6.048 C19.336,6.094 19.385,6.169 19.467,6.235 C19.71,6.547 19.746,6.894 19.614,6.963 L19.575,6.988 L19.431,7.057 C19.373,7.095 19.332,7.098 19.31,7.11 C19.286,7.124 19.27,7.133 19.259,7.136 C19.242,7.141 19.228,7.141 19.216,7.136 C19.202,7.131 19.195,7.124 19.193,7.113 C19.19,7.097 19.207,7.064 19.243,7.016 C19.261,6.992 19.274,6.974 19.284,6.959 C19.333,6.888 19.385,6.874 19.402,6.815 C19.421,6.755 19.405,6.646 19.395,6.59 C19.373,6.478 19.297,6.383 19.179,6.339 C19.06,6.296 18.923,6.33 18.763,6.376 C18.583,6.428 18.471,6.482 18.381,6.588 C18.292,6.695 18.25,6.847 18.296,6.976 C18.306,7.028 18.322,7.063 18.346,7.08 C18.36,7.167 18.586,7.424 18.629,7.412 C18.69,7.45 18.585,7.521 18.585,7.521 C18.558,7.528 18.151,7.392 18.037,7.168" id="Fill-75"></path>
            <path d="M8.189,20.009 C8.158,19.998 8.122,19.978 8.111,19.959 C8.1,19.941 8.099,19.92 8.107,19.896 C8.12,19.86 8.245,19.85 8.251,19.848 C8.285,19.839 8.33,19.77 8.386,19.639 C8.397,19.613 8.474,19.358 8.504,19.258 C8.508,19.248 8.537,19.088 8.544,19.067 C8.586,18.952 8.552,18.876 8.525,18.81 C8.498,18.745 8.449,18.698 8.346,18.661 C8.237,18.621 8.192,18.635 8.121,18.665 C8.049,18.695 7.994,18.724 7.958,18.824 C7.949,18.849 7.876,18.955 7.87,18.974 L7.674,19.341 C7.625,19.503 7.584,19.608 7.603,19.636 C7.61,19.647 7.621,19.661 7.637,19.677 C7.668,19.712 7.715,19.77 7.705,19.798 C7.696,19.82 7.685,19.834 7.668,19.84 C7.651,19.847 7.631,19.846 7.606,19.836 L7.18,19.652 C7.153,19.642 7.134,19.627 7.124,19.61 C7.113,19.593 7.112,19.573 7.121,19.55 C7.13,19.522 7.158,19.507 7.204,19.503 C7.204,19.503 7.327,19.524 7.339,19.514 C7.352,19.505 7.61,19.01 7.61,19.01 C7.614,18.998 7.737,18.744 7.752,18.703 C7.803,18.563 7.889,18.475 8.009,18.439 C8.13,18.404 8.257,18.409 8.447,18.478 C8.664,18.557 8.792,18.629 8.867,18.742 C8.943,18.854 8.965,19.234 8.92,19.328 C8.9,19.37 8.877,19.476 8.866,19.5 L8.806,19.808 C8.8,19.819 8.785,19.907 8.78,19.918 C8.775,19.93 8.753,20 8.756,20.016 C8.758,20.03 8.803,20.08 8.803,20.08 C8.838,20.113 8.85,20.144 8.839,20.172 C8.832,20.193 8.818,20.207 8.799,20.216 C8.78,20.224 8.759,20.223 8.735,20.215 L8.189,20.009" id="Fill-76"></path>
            <path d="M21.839,9.957 C21.763,9.54 21.763,9.094 21.612,8.706 C21.5,8.051 21.263,7.443 21.047,6.832 C20.935,6.605 20.86,6.364 20.698,6.163 C20.615,6 20.515,5.849 20.442,5.688 C20.273,5.464 20.198,5.202 20.033,4.983 C19.823,4.759 19.677,4.497 19.482,4.267 C19.303,4.008 19.051,3.795 18.867,3.536 C18.69,3.454 18.637,3.242 18.46,3.144 C18.393,3.011 18.227,2.982 18.154,2.846 C17.935,2.658 17.74,2.428 17.507,2.259 C17.162,1.964 16.727,1.886 16.388,1.579 L16.101,1.435 C15.849,1.248 15.55,1.173 15.28,1.025 C15.05,0.91 14.812,0.82 14.583,0.712 C14.393,0.658 14.216,0.565 14.015,0.533 C13.96,0.533 13.924,0.482 13.87,0.489 C13.406,0.493 13.018,0.317 12.582,0.259 C12.19,0.248 11.805,0.18 11.42,0.129 C11.248,0.151 11.075,0.119 10.909,0.155 C10.596,0.176 10.279,0.184 9.978,0.227 C9.524,0.306 9.053,0.342 8.65,0.536 C8.201,0.687 7.75,0.842 7.308,1.004 C7.214,1.061 7.11,1.094 7.002,1.115 C6.732,1.187 6.517,1.378 6.247,1.442 C5.963,1.616 5.643,1.688 5.391,1.932 C5.103,2.051 4.84,2.227 4.585,2.432 C4.287,2.565 4.023,2.799 3.765,3.019 C3.502,3.324 3.178,3.555 2.916,3.846 C2.826,3.982 2.704,4.112 2.625,4.252 C2.491,4.411 2.365,4.569 2.25,4.734 C2.085,4.893 1.981,5.083 1.865,5.267 C1.735,5.53 1.556,5.767 1.422,6.026 C1.365,6.216 1.265,6.389 1.196,6.576 C1.063,6.796 0.983,7.037 0.891,7.274 C0.815,7.537 0.7,7.781 0.646,8.051 C0.617,8.145 0.542,8.217 0.563,8.328 C0.484,8.529 0.469,8.76 0.43,8.976 C0.419,9.328 0.293,9.638 0.293,9.99 C0.293,10.285 0.272,10.591 0.268,10.879 C0.282,11.375 0.268,11.882 0.329,12.372 C0.368,12.583 0.358,12.803 0.43,13.001 C0.574,13.555 0.682,14.12 0.891,14.645 C0.995,15.034 1.185,15.386 1.326,15.76 C1.441,15.961 1.609,16.138 1.682,16.357 C1.833,16.595 1.934,16.861 2.135,17.073 C2.164,17.149 2.268,17.196 2.275,17.282 C2.387,17.404 2.466,17.548 2.563,17.685 C2.704,17.822 2.804,17.987 2.948,18.12 C2.981,18.243 3.124,18.307 3.178,18.415 C3.297,18.527 3.451,18.605 3.531,18.753 C3.75,18.84 3.876,19.056 4.07,19.196 C4.545,19.609 5.056,19.948 5.589,20.239 C5.83,20.336 6.049,20.487 6.287,20.592 C6.6,20.75 6.93,20.868 7.247,21.012 C7.535,21.041 7.779,21.191 8.074,21.185 C8.185,21.191 8.273,21.257 8.388,21.257 C8.779,21.344 9.164,21.443 9.56,21.519 C10.186,21.541 10.841,21.649 11.467,21.545 C12.323,21.563 13.119,21.419 13.889,21.218 C14.244,21.084 14.619,20.998 14.978,20.868 C15.403,20.635 15.867,20.502 16.287,20.261 C16.398,20.214 16.492,20.131 16.607,20.099 C16.917,19.948 17.184,19.685 17.481,19.501 C17.903,19.235 18.31,18.912 18.694,18.581 C19.029,18.207 19.378,17.818 19.634,17.401 C19.95,17.012 20.234,16.605 20.446,16.167 C20.489,16.134 20.501,16.077 20.526,16.033 C20.54,15.922 20.601,15.832 20.648,15.735 C20.752,15.411 20.954,15.127 21.065,14.804 C21.148,14.627 21.19,14.433 21.234,14.238 C21.356,13.897 21.472,13.555 21.551,13.195 C21.658,12.548 21.799,11.911 21.864,11.242 C21.942,10.825 21.853,10.386 21.839,9.957 Z M21.56,11.681 C21.497,12.258 21.402,12.855 21.268,13.4 C21.224,13.821 20.967,14.119 20.897,14.529 C20.796,14.769 20.762,15.078 20.612,15.299 C20.437,15.637 20.274,15.919 20.119,16.261 C19.9,16.679 19,18.127 18.137,18.686 C17.802,18.911 17.478,19.151 17.158,19.417 L16.737,19.674 C16.53,19.707 16.397,19.911 16.215,20.002 C16.08,20.092 15.924,20.132 15.778,20.201 C15.342,20.43 14.906,20.662 14.427,20.79 C14.066,20.941 13.664,20.992 13.305,21.149 C12.832,21.222 12.363,21.295 11.883,21.346 C11.393,21.338 10.906,21.447 10.433,21.357 C10.153,21.287 9.826,21.302 9.536,21.291 C9.405,21.302 9.31,21.228 9.19,21.215 C8.864,21.156 8.563,21.04 8.221,21.015 C7.824,20.939 7.461,20.79 7.083,20.678 C7.003,20.627 6.909,20.627 6.822,20.59 C6.444,20.361 6.022,20.23 5.656,19.979 L5.582,19.947 C5.295,19.71 4.987,19.532 4.682,19.34 C4.344,19.067 3.973,18.853 3.647,18.54 C3.428,18.359 3.265,18.119 3.075,17.912 C2.916,17.789 2.807,17.625 2.661,17.483 C2.393,17.189 2.251,16.83 1.989,16.528 C1.775,16.244 1.681,15.914 1.51,15.612 C1.415,15.376 1.281,15.158 1.197,14.918 C1.052,14.54 0.979,14.134 0.812,13.767 C0.75,13.505 0.66,13.254 0.63,12.978 C0.576,12.571 0.47,12.168 0.522,11.735 C0.489,11.492 0.467,11.212 0.503,10.973 C0.467,10.878 0.51,10.776 0.522,10.685 C0.485,10.486 0.572,10.289 0.518,10.093 C0.518,9.744 0.638,9.461 0.627,9.105 C0.667,8.883 0.717,8.658 0.736,8.425 C0.801,8.298 0.823,8.153 0.889,8.026 C0.907,7.782 1.026,7.583 1.085,7.357 C1.175,7.088 1.292,6.831 1.441,6.586 C1.59,6.314 1.713,6.031 1.822,5.741 C2.037,5.454 2.175,5.133 2.44,4.861 C2.574,4.611 2.781,4.382 2.97,4.156 C3.05,3.935 3.279,3.811 3.435,3.633 C3.766,3.302 4.125,3.041 4.507,2.83 C4.747,2.688 4.965,2.499 5.209,2.369 C5.249,2.303 5.329,2.307 5.383,2.263 C5.783,2.013 6.178,1.744 6.611,1.565 C7.149,1.264 7.745,1.112 8.329,0.919 C8.54,0.875 8.751,0.828 8.95,0.752 C9.14,0.741 9.3,0.665 9.474,0.628 C9.656,0.581 9.855,0.581 10.03,0.519 C10.43,0.458 10.818,0.556 11.226,0.549 C11.39,0.563 11.534,0.516 11.702,0.534 C11.8,0.541 11.901,0.538 11.992,0.519 C12.309,0.512 12.595,0.574 12.89,0.625 C13.031,0.669 13.174,0.701 13.322,0.734 C13.516,0.741 13.668,0.853 13.856,0.883 C14.045,0.952 14.256,0.966 14.449,1.028 C14.921,1.224 15.408,1.392 15.869,1.62 C16.207,1.867 16.6,1.977 16.926,2.256 C17.199,2.423 17.464,2.619 17.726,2.819 C17.86,2.906 17.959,3.059 18.085,3.161 C18.253,3.331 18.431,3.488 18.598,3.655 C18.751,3.786 18.863,3.949 19.023,4.069 C19.154,4.229 19.27,4.396 19.408,4.556 C19.692,4.941 19.972,5.327 20.192,5.737 C20.407,5.995 20.542,6.286 20.673,6.576 C20.821,7.016 21.047,7.426 21.146,7.888 C21.243,8.273 21.406,8.629 21.482,9.025 C21.548,9.345 21.573,9.683 21.599,10.017 C21.639,10.289 21.661,10.602 21.617,10.878 C21.624,11.147 21.632,11.438 21.56,11.681 L21.56,11.681 Z" id="Fill-77"></path>
            <path d="M20.637,10.138 C20.52,9.96 20.501,10.228 20.454,10.291 C20.329,10.338 20.179,10.375 20.044,10.368 C19.778,10.305 19.579,10.432 19.31,10.369 C19.263,10.341 19.172,10.4 19.15,10.336 C19.117,10.281 19.07,10.214 19.001,10.222 C18.982,10.23 18.964,10.242 18.964,10.269 C19.015,10.478 18.997,10.787 19.016,11.015 C19.013,11.157 19.292,11.536 19.38,11.602 C19.526,11.708 19.706,11.713 19.905,11.713 C20.081,11.713 20.231,11.579 20.372,11.457 L20.519,11.255 C20.552,11.201 20.54,11.129 20.58,11.079 C20.603,10.94 20.642,10.769 20.642,10.593 C20.642,10.457 20.673,10.272 20.637,10.138 Z M20.343,11.098 C20.146,11.37 19.782,11.315 19.497,11.283 C19.409,11.24 19.304,11.172 19.271,11.063 C19.26,11.011 19.235,10.849 19.269,10.802 C19.397,10.727 19.577,10.758 19.723,10.778 C19.851,10.793 20.308,10.712 20.362,10.771 C20.358,10.831 20.362,11.039 20.343,11.098 L20.343,11.098 Z" id="Fill-78"></path>
        </g>
    </g>
</svg>