<?xml version="1.0" encoding="UTF-8"?>
<svg width="294px" height="293px" viewBox="0 0 294 293" version="1.1" xmlns="http://www.w3.org/2000/svg" xmlns:xlink="http://www.w3.org/1999/xlink">
    <!-- Generator: Sketch 48.2 (47327) - http://www.bohemiancoding.com/sketch -->
    <title>Fill 1</title>
    <desc>Created with Sketch.</desc>
    <defs></defs>
    <g id="Page-1" stroke="none" stroke-width="1" fill="none" fill-rule="evenodd">
        <g id="Dribbble-logo" fill="#FFDB95">
            <path d="M243.547,67.63 C240.907,71.196 219.922,98.061 173.62,116.94 C176.534,122.897 179.328,128.956 181.928,135.054 C182.85,137.216 183.748,139.367 184.626,141.509 C226.295,136.276 267.697,144.662 271.826,145.534 C271.55,116.016 260.988,88.911 243.547,67.63 Z M117.265,25.13 C120.727,29.759 143.471,60.691 163.992,98.343 C208.522,81.675 227.373,56.371 229.625,53.168 C207.511,33.573 178.431,21.654 146.612,21.654 C136.508,21.654 126.683,22.864 117.265,25.13 Z M24.028,121.101 C29.629,121.175 81.223,121.399 139.801,105.864 C119.051,69.028 96.672,38.058 93.371,33.536 C58.336,50.04 32.148,82.294 24.028,121.101 Z M53.576,230.336 C56.413,225.486 90.781,168.656 155.367,147.808 C156.999,147.281 158.645,146.786 160.302,146.32 C157.158,139.215 153.734,132.103 150.149,125.096 C87.611,143.788 26.926,143.007 21.447,142.895 C21.408,144.164 21.382,145.437 21.382,146.716 C21.382,178.836 33.575,208.164 53.576,230.336 Z M195.529,261.838 C193.666,250.866 186.395,212.626 168.814,167 C168.539,167.093 168.263,167.182 167.988,167.278 C97.354,191.858 71.999,240.776 69.745,245.377 C90.978,261.912 117.662,271.778 146.612,271.778 C163.959,271.778 180.493,268.234 195.529,261.838 Z M270.257,166.567 C265.972,165.217 231.495,154.948 192.253,161.221 C208.632,206.171 215.298,242.781 216.581,250.389 C244.676,231.417 264.675,201.365 270.257,166.567 Z M146.612,292.94 C65.77,292.94 0,227.259 0,146.525 C0,65.791 65.77,0.109 146.612,0.109 C227.453,0.109 293.223,65.791 293.223,146.525 C293.223,227.259 227.453,292.94 146.612,292.94 Z" id="Fill-1"></path>
        </g>
    </g>
</svg>