<?xml version="1.0" encoding="UTF-8"?>
<svg width="36px" height="36px" viewBox="0 0 36 36" version="1.1" xmlns="http://www.w3.org/2000/svg" xmlns:xlink="http://www.w3.org/1999/xlink">
    <!-- Generator: Sketch 48.2 (47327) - http://www.bohemiancoding.com/sketch -->
    <title>In-2CRev-CMYK-0p5in-R</title>
    <desc>Created with Sketch.</desc>
    <defs></defs>
    <g id="Page-1" stroke="none" stroke-width="1" fill="none" fill-rule="evenodd">
        <g id="In-2CRev-CMYK-0p5in-R" fill="#FFDB95">
            <path d="M33.336,0 C34.804,0 35.999,1.162 35.999,2.596 L35.999,33.402 C35.999,34.836 34.804,36 33.336,36 L2.655,36 C1.19,36 0,34.836 0,33.402 L0,2.596 C0,1.162 1.19,0 2.655,0 L33.336,0 Z M8.008,4.956 C6.293,4.956 4.91,6.343 4.91,8.052 C4.91,9.762 6.293,11.149 8.008,11.149 C9.716,11.149 11.102,9.762 11.102,8.052 C11.102,6.343 9.716,4.956 8.008,4.956 Z M5.334,30.676 L10.679,30.676 L10.679,13.496 L5.334,13.496 L5.334,30.676 Z M14.028,13.496 L14.028,30.676 L19.361,30.676 L19.361,22.179 C19.361,19.937 19.785,17.766 22.564,17.766 C25.304,17.766 25.338,20.329 25.338,22.321 L25.338,30.676 L30.677,30.676 L30.677,21.254 C30.677,16.627 29.678,13.07 24.271,13.07 C21.674,13.07 19.932,14.494 19.22,15.845 L19.146,15.845 L19.146,13.496 L14.028,13.496 Z" id="Combined-Shape"></path>
        </g>
    </g>
</svg>