<?xml version="1.0" encoding="UTF-8"?>
<svg width="16px" height="24px" viewBox="0 0 16 24" version="1.1" xmlns="http://www.w3.org/2000/svg" xmlns:xlink="http://www.w3.org/1999/xlink">
    <!-- Generator: Sketch 48.2 (47327) - http://www.bohemiancoding.com/sketch -->
    <title>iconmonstr-mouse-6</title>
    <desc>Created with Sketch.</desc>
    <defs>
        <polygon id="path-1" points="0 0 16 0 16 24 0 24"></polygon>
    </defs>
    <g id="Page-1" stroke="none" stroke-width="1" fill="none" fill-rule="evenodd">
        <g id="iconmonstr-mouse-6">
            <mask id="mask-2" fill="white">
                <use xlink:href="#path-1"></use>
            </mask>
            <g id="Clip-2"></g>
            <path d="M8,9 C7.171,9 6.5,8.328 6.5,7.5 C6.5,6.672 7.171,6 8,6 C8.829,6 9.5,6.672 9.5,7.5 C9.5,8.328 8.829,9 8,9 Z M8,0 C3.582,0 0,3.582 0,8 L0,16 C0,20.419 3.582,24 8,24 C12.418,24 16,20.419 16,16 L16,8 C16,3.582 12.418,0 8,0 Z M8,2 C11.309,2 14,4.691 14,8 L14,16 C14,19.309 11.309,22 8,22 C4.691,22 2,19.309 2,16 L2,8 C2,4.691 4.691,2 8,2 Z" id="Fill-1" fill="#FFFFFF" mask="url(#mask-2)"></path>
        </g>
    </g>
</svg>